<?xml version="1.0" encoding="UTF-8" standalone="no"?>
<!DOCTYPE svg PUBLIC "-//W3C//DTD SVG 1.1//EN" "http://www.w3.org/Graphics/SVG/1.1/DTD/svg11.dtd">
<svg version="1.1" xmlns="http://www.w3.org/2000/svg" xmlns:xlink="http://www.w3.org/1999/xlink" preserveAspectRatio="xMidYMid meet" viewBox="0 0 640 640" width="640" height="640"><defs><path d="M61.72 37.48C61.72 25.87 52.32 16.47 40.72 16.47C29.11 16.47 19.71 25.87 19.71 37.48C19.71 49.08 29.11 58.49 40.72 58.49C52.32 58.49 61.72 49.08 61.72 37.48Z" id="b3kepdbHKS"></path><path d="M65.89 68.51L66.6 68.59L67.29 68.71L67.97 68.86L68.63 69.04L69.26 69.26L69.88 69.5L70.48 69.78L71.07 70.08L71.63 70.42L72.18 70.78L72.71 71.17L73.23 71.58L73.73 72.02L74.21 72.49L74.67 72.98L75.12 73.5L75.56 74.04L75.98 74.6L76.39 75.18L76.78 75.79L77.15 76.42L77.52 77.07L77.86 77.73L78.2 78.42L78.52 79.13L78.83 79.85L79.13 80.59L79.41 81.35L79.68 82.12L79.94 82.91L80.19 83.71L80.43 84.53L80.66 85.36L80.87 86.2L81.08 87.06L81.27 87.93L81.46 88.8L81.63 89.69L85.78 113.3L102.87 113.3L102.97 113.3L103.08 113.3L103.18 113.31L103.28 113.31L103.38 113.32L103.48 113.32L103.58 113.33L103.68 113.34L103.78 113.35L103.88 113.36L103.98 113.37L104.08 113.39L104.18 113.4L104.28 113.41L104.37 113.43L104.47 113.45L104.57 113.47L104.67 113.49L104.76 113.51L104.86 113.53L104.95 113.55L105.05 113.57L105.14 113.6L105.24 113.62L105.33 113.65L105.43 113.68L105.52 113.71L105.61 113.73L105.7 113.77L105.8 113.8L105.89 113.83L105.98 113.86L106.07 113.89L106.16 113.93L106.25 113.96L106.34 114L106.43 114.04L106.52 114.08L106.61 114.11L106.7 114.15L138.13 91.34L138.19 91.3L138.25 91.26L138.31 91.22L138.37 91.18L138.42 91.14L138.48 91.11L138.54 91.07L138.6 91.04L138.67 91L138.73 90.97L138.79 90.94L138.85 90.91L138.91 90.88L138.98 90.85L139.04 90.83L139.11 90.8L139.17 90.78L139.23 90.75L139.3 90.73L139.36 90.71L139.43 90.69L139.5 90.67L139.56 90.65L139.63 90.63L139.7 90.61L139.76 90.6L139.83 90.58L139.9 90.57L139.97 90.56L140.03 90.55L140.1 90.54L140.17 90.53L140.24 90.52L140.31 90.51L140.38 90.51L140.45 90.5L140.52 90.5L140.59 90.49L140.66 90.49L140.73 90.49L140.83 90.49L140.94 90.5L141.04 90.5L141.15 90.51L141.25 90.52L141.36 90.54L141.46 90.55L141.56 90.57L141.67 90.59L141.77 90.62L141.87 90.64L141.97 90.67L142.07 90.7L142.17 90.73L142.26 90.77L142.36 90.81L142.46 90.85L142.55 90.89L142.65 90.93L142.74 90.98L142.83 91.02L142.92 91.07L143.01 91.13L143.1 91.18L143.19 91.24L143.27 91.3L143.36 91.36L143.44 91.42L143.52 91.48L143.6 91.55L143.68 91.62L143.76 91.69L143.83 91.76L143.91 91.84L143.98 91.91L144.05 91.99L144.12 92.07L144.18 92.15L144.25 92.23L144.31 92.32L144.42 92.47L144.51 92.62L144.6 92.78L144.69 92.93L144.76 93.09L144.83 93.25L144.89 93.42L144.95 93.58L145 93.75L145.04 93.92L145.08 94.08L145.11 94.25L145.13 94.42L145.14 94.59L145.15 94.76L145.15 94.93L145.15 95.1L145.14 95.27L145.12 95.44L145.1 95.61L145.07 95.78L145.03 95.95L144.99 96.11L144.94 96.27L144.89 96.43L144.82 96.59L144.76 96.75L144.68 96.91L144.6 97.06L144.52 97.21L144.43 97.35L144.33 97.5L144.22 97.63L144.11 97.77L144 97.9L143.88 98.03L143.75 98.15L143.62 98.27L143.48 98.39L143.33 98.5L111.96 121.27L111.96 121.3L111.97 121.33L111.97 121.36L111.97 121.39L111.98 121.45L112 121.55L112 121.58L112 121.61L112.01 121.64L112.01 121.67L112.02 121.7L112.02 121.73L112.03 121.76L112.03 121.8L112.03 121.83L112.04 121.86L112.04 121.89L112.04 121.92L112.05 121.95L112.05 121.98L112.05 122.01L112.06 122.04L112.06 122.08L112.06 122.11L112.07 122.14L112.07 122.17L112.07 122.2L112.07 122.23L112.08 122.26L112.08 122.3L112.08 122.33L112.08 122.36L112.08 122.39L112.08 122.42L112.08 122.45L112.08 122.49L112.08 122.52L112.08 122.9L112.05 123.27L112.01 123.65L111.96 124.01L111.9 124.38L111.82 124.73L111.72 125.08L111.61 125.43L111.49 125.77L111.36 126.1L111.21 126.43L111.06 126.75L110.88 127.07L110.7 127.37L110.51 127.67L110.31 127.96L110.09 128.24L109.87 128.51L109.63 128.78L109.39 129.03L109.13 129.28L108.87 129.51L108.59 129.74L108.31 129.95L108.02 130.16L107.72 130.35L107.42 130.53L107.11 130.7L106.78 130.86L106.46 131.01L106.12 131.14L105.78 131.26L105.44 131.37L105.09 131.46L104.73 131.54L104.37 131.61L104 131.66L103.63 131.7L103.25 131.72L102.87 131.73L77.11 131.73L76.69 131.72L76.27 131.7L75.86 131.66L75.45 131.61L75.04 131.54L74.65 131.46L74.25 131.37L73.86 131.26L73.48 131.14L73.1 131L72.73 130.86L72.36 130.7L72 130.52L71.65 130.34L71.3 130.14L70.97 129.94L70.64 129.72L70.31 129.48L70 129.24L69.7 128.99L69.4 128.73L69.11 128.46L68.83 128.17L68.57 127.88L68.31 127.58L68.06 127.27L67.82 126.95L67.6 126.62L67.38 126.28L67.18 125.94L66.99 125.58L66.81 125.22L66.64 124.86L66.49 124.48L66.35 124.1L66.22 123.71L66.1 123.31L66 122.91L65.92 122.5L65.84 122.09L63.21 110.46L62.98 110.46L58.37 229.72L58.37 230.13L58.34 230.53L58.3 230.92L58.25 231.31L58.18 231.7L58.09 232.08L57.99 232.45L57.87 232.82L57.75 233.18L57.6 233.54L57.45 233.89L57.28 234.23L57.1 234.56L56.91 234.89L56.7 235.2L56.48 235.51L56.25 235.81L56.01 236.1L55.76 236.38L55.5 236.65L55.23 236.92L54.95 237.17L54.66 237.41L54.36 237.63L54.05 237.85L53.73 238.06L53.41 238.25L53.08 238.43L52.73 238.6L52.39 238.76L52.03 238.9L51.67 239.03L51.3 239.14L50.93 239.24L50.55 239.33L50.16 239.4L49.77 239.45L49.37 239.49L48.97 239.52L48.57 239.53L28.96 239.53L28.55 239.52L28.15 239.49L27.76 239.45L27.37 239.4L26.98 239.33L26.6 239.24L26.22 239.14L25.86 239.03L25.49 238.9L25.14 238.76L24.79 238.6L24.45 238.43L24.12 238.25L23.79 238.06L23.47 237.85L23.16 237.63L22.86 237.41L22.57 237.17L22.29 236.92L22.02 236.65L21.76 236.38L21.51 236.1L21.27 235.81L21.04 235.51L20.82 235.2L20.62 234.89L20.42 234.56L20.24 234.23L20.07 233.89L19.92 233.54L19.78 233.18L19.65 232.82L19.53 232.45L19.43 232.08L19.35 231.7L19.27 231.31L19.22 230.92L19.18 230.53L19.15 230.13L19.15 229.72L15.64 169.51L9.21 169.51L8.83 169.5L8.46 169.48L8.08 169.44L7.72 169.39L7.36 169.32L7 169.24L6.65 169.15L6.3 169.04L5.96 168.92L5.63 168.78L5.3 168.64L4.98 168.48L4.66 168.31L4.36 168.13L4.06 167.93L3.77 167.73L3.49 167.52L3.22 167.29L2.95 167.05L2.7 166.81L2.45 166.55L2.22 166.29L1.99 166.02L1.78 165.74L1.57 165.45L1.38 165.15L1.2 164.84L1.03 164.53L0.87 164.21L0.72 163.88L0.59 163.55L0.47 163.21L0.36 162.86L0.27 162.51L0.19 162.15L0.12 161.79L0.07 161.42L0.03 161.05L0.01 160.67L0 160.29L0 89.69L0.02 88.93L0.08 88.16L0.18 87.39L0.32 86.62L0.5 85.85L0.71 85.09L0.95 84.33L1.23 83.57L1.55 82.82L1.89 82.07L2.26 81.34L2.67 80.61L3.1 79.89L3.56 79.19L4.04 78.49L4.55 77.81L5.08 77.15L5.64 76.49L6.21 75.86L6.81 75.25L7.42 74.65L8.06 74.07L8.71 73.52L9.37 72.99L10.05 72.48L10.75 71.99L11.45 71.53L12.17 71.1L12.9 70.7L13.64 70.33L14.38 69.98L15.13 69.67L15.89 69.39L16.65 69.14L17.42 68.93L18.18 68.76L18.95 68.62L19.72 68.52L20.49 68.46L21.25 68.44L64.4 68.44L65.15 68.45L65.89 68.51ZM34.01 109.43L39.67 116.99L46.08 109.43L46.08 75.87L34.01 75.87L34.01 109.43Z" id="bPx6aIRve"></path><path d="M95.16 100.43L107.23 100.43L107.23 35.8L243.94 35.8L243.94 151.07L107.23 151.07L107.23 136.56L95.16 136.56L95.16 163.13L256 163.13L256 23.74L95.16 23.74L95.16 100.43Z" id="b1XuapawSN"></path><path d="M138.89 177.28C129.49 177.28 121.87 184.9 121.87 194.3C121.87 203.69 129.49 211.31 138.89 211.31C148.29 211.31 155.91 203.69 155.91 194.3C155.91 184.9 148.29 177.28 138.89 177.28Z" id="d7MtrOV39A"></path><path d="M112.5 239.53C117.78 239.53 160 239.53 165.28 239.53C161.32 228.39 151.02 220.43 138.89 220.43C126.76 220.43 116.46 228.39 112.5 239.53Z" id="bFVKvlDRx"></path><path d="M212.27 177.28C202.87 177.28 195.25 184.9 195.25 194.3C195.25 203.69 202.87 211.31 212.27 211.31C221.67 211.31 229.29 203.69 229.29 194.3C229.29 184.9 221.67 177.28 212.27 177.28Z" id="a4MH72OPa8"></path><path d="M185.88 239.53C191.16 239.53 233.39 239.53 238.66 239.53C234.71 228.39 224.4 220.43 212.27 220.43C200.14 220.43 189.84 228.39 185.88 239.53Z" id="b4CwIuZbY6"></path></defs><g><g><g><use xlink:href="#b3kepdbHKS" opacity="1" fill="#ffffff" fill-opacity="1"></use><g><use xlink:href="#b3kepdbHKS" opacity="1" fill-opacity="0" stroke="#000000" stroke-width="1" stroke-opacity="0"></use></g></g><g><use xlink:href="#bPx6aIRve" opacity="1" fill="#ffffff" fill-opacity="1"></use><g><use xlink:href="#bPx6aIRve" opacity="1" fill-opacity="0" stroke="#000000" stroke-width="1" stroke-opacity="0"></use></g></g><g><use xlink:href="#b1XuapawSN" opacity="1" fill="#ffffff" fill-opacity="1"></use><g><use xlink:href="#b1XuapawSN" opacity="1" fill-opacity="0" stroke="#000000" stroke-width="1" stroke-opacity="0"></use></g></g><g><use xlink:href="#d7MtrOV39A" opacity="1" fill="#ffffff" fill-opacity="1"></use><g><use xlink:href="#d7MtrOV39A" opacity="1" fill-opacity="0" stroke="#000000" stroke-width="1" stroke-opacity="0"></use></g></g><g><use xlink:href="#bFVKvlDRx" opacity="1" fill="#ffffff" fill-opacity="1"></use><g><use xlink:href="#bFVKvlDRx" opacity="1" fill-opacity="0" stroke="#000000" stroke-width="1" stroke-opacity="0"></use></g></g><g><use xlink:href="#a4MH72OPa8" opacity="1" fill="#ffffff" fill-opacity="1"></use><g><use xlink:href="#a4MH72OPa8" opacity="1" fill-opacity="0" stroke="#000000" stroke-width="1" stroke-opacity="0"></use></g></g><g><use xlink:href="#b4CwIuZbY6" opacity="1" fill="#ffffff" fill-opacity="1"></use><g><use xlink:href="#b4CwIuZbY6" opacity="1" fill-opacity="0" stroke="#000000" stroke-width="1" stroke-opacity="0"></use></g></g></g></g></svg>