<?xml version="1.0" encoding="UTF-8" standalone="no"?>
<svg width="650px" height="300px" viewBox="0 0 650 300" version="1.1" xmlns="http://www.w3.org/2000/svg" xmlns:xlink="http://www.w3.org/1999/xlink" xmlns:sketch="http://www.bohemiancoding.com/sketch/ns">
    <!-- Generator: Sketch 3.3.3 (12072) - http://www.bohemiancoding.com/sketch -->
    <title>Rectangle 43</title>
    <desc>Created with Sketch.</desc>
    <defs></defs>
    <g id="Page-1" stroke="none" stroke-width="1" fill="none" fill-rule="evenodd" sketch:type="MSPage">
        <g id="教員詳細ページopen-copy" sketch:type="MSArtboardGroup" transform="translate(-51.000000, -3343.000000)" stroke="#979797">
            <g id="「為せば成る為さねば成らぬ何事も、成らぬ-+-高校生のみなさんへ-+-Rectangle-43" sketch:type="MSLayerGroup" transform="translate(51.500000, 3343.000000)">
                <path d="M0,30.9988535 C0,13.8786595 13.8800969,0 31.0071548,0 L612.992845,0 C630.117624,0 644,13.87444 644,30.9988535 L644,234.001146 C644,251.121341 630.120216,265 613.002166,265 L601.385803,265 C601.385803,265 600.847318,271.385938 613.620422,281.842102 C626.393527,292.298266 649.832947,299.214905 649.832947,299.214905 C649.832947,299.214905 615.732106,295.252986 598.464844,287.499084 C581.197582,279.745183 573.639343,265 573.639343,265 L30.9938318,265 C13.8764112,265 0,251.12556 0,234.001146 L0,30.9988535 Z" id="Rectangle-43" sketch:type="MSShapeGroup"></path>
            </g>
        </g>
    </g>
</svg>