<?xml version="1.0" encoding="utf-8"?>
<!-- Generator: Adobe Illustrator 16.0.0, SVG Export Plug-In . SVG Version: 6.00 Build 0)  -->
<!DOCTYPE svg PUBLIC "-//W3C//DTD SVG 1.1//EN" "http://www.w3.org/Graphics/SVG/1.1/DTD/svg11.dtd">
<svg version="1.1" xmlns="http://www.w3.org/2000/svg" xmlns:xlink="http://www.w3.org/1999/xlink" x="0px" y="0px" width="192px"
	 height="192px" viewBox="0 0 192 192" enable-background="new 0 0 192 192" xml:space="preserve">
<g id="レイヤー_1">
	<rect x="75.016" y="52.198" fill="#FFFFFF" width="24.435" height="35.088"/>
	<g>
		<path fill="#FFFFFF" d="M99.45,126.224c0,1.65-1.351,3-3,3h-5.509c-1.65,0-3-1.35-3-3V87.528c0-1.65,1.35-3,3-3h5.509
			c1.649,0,3,1.35,3,3V126.224z"/>
	</g>
	<g>
		<path fill="#FFFFFF" d="M73.823,81.529c0,1.65-1.35,3-3,3h-3.021c-1.65,0-3-1.35-3-3V50.31c0-1.65,1.35-3,3-3h3.021
			c1.65,0,3,1.35,3,3V81.529z"/>
	</g>
	<g>
		<path fill="#FFFFFF" d="M109.664,81.529c0,1.65-1.35,3-3,3h-3.021c-1.65,0-3-1.35-3-3V50.31c0-1.65,1.35-3,3-3h3.021
			c1.65,0,3,1.35,3,3V81.529z"/>
	</g>
	<g>
		<path fill="#FFFFFF" d="M86.524,126.224c0,1.65-1.351,3-3,3h-5.509c-1.65,0-3-1.35-3-3V87.528c0-1.65,1.35-3,3-3h5.509
			c1.649,0,3,1.35,3,3V126.224z"/>
	</g>
</g>
<g id="レイヤー_2">
	<circle fill="#FFFFFF" cx="87.233" cy="29.639" r="11.025"/>
	<g>
		<path fill="#FFFFFF" d="M109.664,48.702c0,2.75-2.25,5-5,5H69.802c-2.75,0-5-2.25-5-5v-1.027c0-2.75,2.25-5,5-5h34.862
			c2.75,0,5,2.25,5,5V48.702z"/>
	</g>
	<rect x="171.694" y="62.474" fill="#FFFFFF" width="0" height="3.445"/>
	<g>
	</g>
	<g>
	</g>
	<g>
	</g>
	<g>
	</g>
	<g>
	</g>
	<g>
	</g>
	<g>
	</g>
	<g>
	</g>
	<g>
	</g>
	<g>
	</g>
	<g>
	</g>
	<g>
	</g>
	<g>
	</g>
	<g>
	</g>
	<g>
	</g>
</g>
</svg>
