<!--?xml version="1.0" encoding="utf-8"?-->
<!-- Generator: Adobe Illustrator 18.0.0, SVG Export Plug-In . SVG Version: 6.00 Build 0)  -->

<svg version="1.1" id="_x32_" xmlns="http://www.w3.org/2000/svg" xmlns:xlink="http://www.w3.org/1999/xlink" x="0px" y="0px" viewBox="0 0 512 512" style="width: 64px; height: 64px; opacity: 1;" xml:space="preserve">
<style type="text/css">
	.st0{fill:#4B4B4B;}
</style>
<g>
	<path class="st0" d="M160.667,138.183c38.096,0,69.09-30.996,69.09-69.09C229.757,30.996,198.763,0,160.667,0
		C122.572,0,91.58,30.996,91.58,69.094C91.58,107.187,122.572,138.183,160.667,138.183z" style="fill: rgb(255, 255, 255);"></path>
	<path class="st0" d="M482.408,448.934l-74.818-159.756l-175.416,0.117l-8.243-28.798l-2.18-7.776h118.602
		c16.532,0,29.981-13.488,29.981-30.059c0-16.533-13.449-29.981-29.981-29.981l-135.123,0.117l-9.028-32.218l-48.741,0.156h-13.22
		c0.004,0.016,0.008,0.032,0.012,0.047h-0.166l52.602,188.44l182.7-0.094l58.604,125.203c4.962,10.548,15.625,17.36,27.168,17.36
		c4.257,0,8.555-0.945,12.779-2.811C482.892,481.843,489.384,463.925,482.408,448.934z" style="fill: rgb(255, 255, 255);"></path>
	<path class="st0" d="M260.488,388.999c-0.97,3.873-2.326,7.866-4.15,12.207c-4.57,10.821-11.095,20.514-19.396,28.81
		c-8.442,8.366-18.135,14.893-28.81,19.398c-10.964,4.622-23.164,7.062-35.275,7.062c-12.113,0-24.311-2.44-35.275-7.062
		c-10.673-4.505-20.366-11.032-28.812-19.398c-8.301-8.296-14.826-17.992-19.394-28.81c-4.714-11.184-7.103-23.052-7.103-35.275
		c0-12.223,2.389-24.09,7.103-35.275c4.505-10.673,11.03-20.37,19.392-28.814c5.38-5.298,11.179-9.834,17.312-13.667l-13.206-46.604
		l-2.138-7.636c-0.008,0.004-0.016,0.008-0.023,0.012l-0.045-0.156c-15.266,7.109-29.081,16.829-41.06,28.892
		c-13.38,13.3-23.909,28.92-31.293,46.42c-7.648,17.926-11.526,37.043-11.526,56.828c0,19.757,3.878,38.905,11.526,56.906
		c7.386,17.426,17.914,33.046,31.293,46.424c13.439,13.437,29.056,23.965,46.422,31.293C134.016,508.151,153.135,512,172.857,512
		c19.72,0,38.839-3.849,56.826-11.446c17.368-7.328,32.987-17.856,46.422-31.293c13.374-13.374,23.905-28.994,31.295-46.424
		c4.252-9.963,7.306-20.503,9.086-31.473c0.136-0.781,0.318-1.546,0.441-2.326h-0.03c0.008-0.055,0.022-0.106,0.03-0.16
		L260.488,388.999z" style="fill: rgb(255, 255, 255);"></path>
</g>
</svg>
