<?xml version="1.0" encoding="utf-8"?>
<!-- Generator: Adobe Illustrator 16.0.0, SVG Export Plug-In . SVG Version: 6.00 Build 0)  -->
<!DOCTYPE svg PUBLIC "-//W3C//DTD SVG 1.1//EN" "http://www.w3.org/Graphics/SVG/1.1/DTD/svg11.dtd">
<svg version="1.1" xmlns="http://www.w3.org/2000/svg" xmlns:xlink="http://www.w3.org/1999/xlink" x="0px" y="0px" width="192px"
	 height="192px" viewBox="0 0 192 192" enable-background="new 0 0 192 192" xml:space="preserve">
<g id="レイヤー_1">
	<g>
		<path fill="#FFFFFF" d="M69.073,76.857c-0.436,1.591-2.095,2.536-3.687,2.1l-0.643-0.176c-1.591-0.436-2.537-2.095-2.101-3.686
			l8.253-30.109c0.436-1.591,2.095-2.536,3.686-2.1l0.644,0.177c1.591,0.436,2.536,2.095,2.1,3.686L69.073,76.857z"/>
	</g>
	<g>
		<path fill="#FFFFFF" d="M85.277,126.224c0,1.65-1.35,3-3,3h-2.024c-1.65,0-3-1.35-3-3V87.528c0-1.65,1.35-3,3-3h2.024
			c1.65,0,3,1.35,3,3V126.224z"/>
	</g>
	<polygon fill="#FFFFFF" points="109.981,99.668 64.45,99.832 78.524,51.995 95.57,51.934 	"/>
	<g>
		<path fill="#FFFFFF" d="M96,126.224c0,1.65-1.351,3-3,3h-2.025c-1.649,0-3-1.35-3-3V87.528c0-1.65,1.351-3,3-3H93
			c1.649,0,3,1.35,3,3V126.224z"/>
	</g>
	<g>
		<path fill="#FFFFFF" d="M112.468,74.853c0.486,1.576-0.405,3.265-1.981,3.752l-0.637,0.197c-1.576,0.487-3.265-0.404-3.752-1.98
			l-9.212-29.831c-0.487-1.576,0.404-3.265,1.98-3.751l0.638-0.197c1.576-0.487,3.265,0.405,3.751,1.981L112.468,74.853z"/>
	</g>
</g>
<g id="レイヤー_2">
	<circle fill="#FFFFFF" cx="87.233" cy="29.639" r="11.025"/>
	<g>
		<path fill="#FFFFFF" d="M103.731,48.121c0,2.75-2.25,5-5,5H75.735c-2.75,0-5-2.25-5-5v-1.027c0-2.75,2.25-5,5-5h22.996
			c2.75,0,5,2.25,5,5V48.121z"/>
	</g>
	<rect x="171.694" y="62.474" fill="#FFFFFF" width="0" height="3.445"/>
	<g>
	</g>
	<g>
	</g>
	<g>
	</g>
	<g>
	</g>
	<g>
	</g>
	<g>
	</g>
	<g>
	</g>
	<g>
	</g>
	<g>
	</g>
	<g>
	</g>
	<g>
	</g>
	<g>
	</g>
	<g>
	</g>
	<g>
	</g>
	<g>
	</g>
</g>
</svg>
