<?xml version="1.0" encoding="UTF-8" standalone="no"?>
<svg width="15px" height="15px" viewBox="0 0 15 15" version="1.1" xmlns="http://www.w3.org/2000/svg" xmlns:xlink="http://www.w3.org/1999/xlink" xmlns:sketch="http://www.bohemiancoding.com/sketch/ns">
    <!-- Generator: Sketch 3.3.3 (12072) - http://www.bohemiancoding.com/sketch -->
    <title>0081-alarm</title>
    <desc>Created with Sketch.</desc>
    <defs></defs>
    <g id="Page-1" stroke="none" stroke-width="1" fill="none" fill-rule="evenodd" sketch:type="MSPage">
        <g id="学会発表" sketch:type="MSArtboardGroup" transform="translate(-309.000000, -293.000000)" fill="#4A4A4A">
            <g id="Group" sketch:type="MSLayerGroup" transform="translate(294.000000, 293.000000)">
                <g id="日時＆名前" transform="translate(15.000000, 0.000000)" sketch:type="MSShapeGroup">
                    <g id="0081-alarm-+-2014.04.26---2014.04">
                        <g id="0081-alarm">
                            <path d="M7.5,0 C3.35785714,0 0,3.35785714 0,7.5 C0,11.6421429 3.35785714,15 7.5,15 C11.6421429,15 15,11.6421429 15,7.5 C15,3.35785714 11.6421429,0 7.5,0 L7.5,0 Z M7.5,13.5267857 C4.17133929,13.5267857 1.47321429,10.8283929 1.47321429,7.5 C1.47321429,4.17160714 4.17133929,1.47321429 7.5,1.47321429 C10.8283929,1.47321429 13.5267857,4.17133929 13.5267857,7.5 C13.5267857,10.8286607 10.8283929,13.5267857 7.5,13.5267857 L7.5,13.5267857 Z" id="Shape"></path>
                            <path d="M7.5,7.5 L7.5,3.21428571 L6.42857143,3.21428571 L6.42857143,8.57142857 L10.7142857,8.57142857 L10.7142857,7.5 L7.5,7.5 Z" id="Shape"></path>
                        </g>
                    </g>
                </g>
            </g>
        </g>
    </g>
</svg>