<?xml version="1.0" encoding="UTF-8" standalone="no"?>
<svg width="137px" height="36px" viewBox="0 0 137 36" version="1.1" xmlns="http://www.w3.org/2000/svg" xmlns:xlink="http://www.w3.org/1999/xlink" xmlns:sketch="http://www.bohemiancoding.com/sketch/ns">
    <!-- Generator: Sketch 3.3.3 (12072) - http://www.bohemiancoding.com/sketch -->
    <title>Rectangle 12 + 2014年度</title>
    <desc>Created with Sketch.</desc>
    <defs></defs>
    <g id="Page-1" stroke="none" stroke-width="1" fill="none" fill-rule="evenodd" sketch:type="MSPage">
        <g id="学会発表" sketch:type="MSArtboardGroup" transform="translate(-83.000000, -474.000000)">
            <g id="Group" sketch:type="MSLayerGroup" transform="translate(83.000000, 420.000000)">
                <g id="Rectangle-12-+-2014年度" transform="translate(0.000000, 54.000000)" sketch:type="MSShapeGroup">
                    <path d="M0,6.00135749 C0,4.34375352 1.34033917,3 2.99858903,3 L124.001411,3 C125.657486,3 127,4.34867314 127,6.00548015 L127,13.9988356 L136.127518,19.0328274 L127,24.107933 L127,32.9991294 C127,34.6564645 125.659661,36 124.001411,36 L2.99858903,36 C1.34251404,36 0,34.6654891 0,32.9986425 L0,6.00135749 Z" id="Rectangle-12-Copy" fill="#5FA8C4"></path>
                    <path d="M0,3.00135749 C0,1.34375352 1.34033917,0 2.99858903,0 L124.001411,0 C125.657486,0 127,1.34867314 127,3.00548015 L127,10.9988356 L136.127518,16.0328274 L127,21.107933 L127,29.9991294 C127,31.6564645 125.659661,33 124.001411,33 L2.99858903,33 C1.34251404,33 0,31.6654891 0,29.9986425 L0,3.00135749 Z" id="Rectangle-12" fill="#71CDF2"></path>
                </g>
            </g>
        </g>
    </g>
</svg>