<?xml version="1.0" encoding="UTF-8" standalone="no"?>
<svg width="160px" height="160px" viewBox="0 0 160 160" version="1.1" xmlns="http://www.w3.org/2000/svg" xmlns:xlink="http://www.w3.org/1999/xlink" xmlns:sketch="http://www.bohemiancoding.com/sketch/ns">
    <!-- Generator: Sketch 3.3.3 (12072) - http://www.bohemiancoding.com/sketch -->
    <title>Group</title>
    <desc>Created with Sketch.</desc>
    <defs></defs>
    <g id="Page-1" stroke="none" stroke-width="1" fill="none" fill-rule="evenodd" sketch:type="MSPage">
        <g id="カリキュラムbase" sketch:type="MSArtboardGroup" transform="translate(-147.000000, -1228.000000)">
            <g id="curriculum01" sketch:type="MSLayerGroup" transform="translate(134.000000, 927.000000)">
                <g id="Group-2" transform="translate(13.000000, 301.000000)">
                    <g id="Group">
                        <rect id="Rectangle-123" fill="#B2D58E" sketch:type="MSShapeGroup" x="0" y="0" width="160" height="160"></rect>
                        <path d="M66.4771592,32.8299747 C66.4771592,31.7232286 67.3770175,30.8260336 68.4768762,30.8260336 L91.5231238,30.8260336 C92.627537,30.8260336 93.5228408,31.7215169 93.5228408,32.8299747 L93.5228408,77.9960589 C93.5228408,79.102805 92.6229825,80 91.5231238,80 L68.4768762,80 C67.372463,80 66.4771592,79.1045167 66.4771592,77.9960589 L66.4771592,32.8299747 Z M69.1572744,37.6496118 L91.1500616,37.6496118 L91.1500616,73.1764218 L69.1572744,73.1764218 L69.1572744,37.6496118 Z M77.5413017,33.7457379 C77.5413017,33.4062625 77.8197716,33.1310633 78.1640934,33.1310633 L81.8359066,33.1310633 C82.179865,33.1310633 82.4586983,33.4161907 82.4586983,33.7457379 C82.4586983,34.0852133 82.1802284,34.3604125 81.8359066,34.3604125 L78.1640934,34.3604125 C77.820135,34.3604125 77.5413017,34.0752851 77.5413017,33.7457379 Z M80.0768343,78.4633136 C81.1376949,78.4633136 81.9976924,77.6033161 81.9976924,76.5424555 C81.9976924,75.4815949 81.1376949,74.6215974 80.0768343,74.6215974 C79.0159737,74.6215974 78.1559763,75.4815949 78.1559763,76.5424555 C78.1559763,77.6033161 79.0159737,78.4633136 80.0768343,78.4633136 Z" id="Rectangle-9" fill="#FFFFFF" sketch:type="MSShapeGroup"></path>
                    </g>
                </g>
            </g>
        </g>
    </g>
</svg>