<?xml version="1.0" encoding="UTF-8" standalone="no"?>
<svg width="160px" height="160px" viewBox="0 0 160 160" version="1.1" xmlns="http://www.w3.org/2000/svg" xmlns:xlink="http://www.w3.org/1999/xlink" xmlns:sketch="http://www.bohemiancoding.com/sketch/ns">
    <!-- Generator: Sketch 3.3.3 (12072) - http://www.bohemiancoding.com/sketch -->
    <title>Group</title>
    <desc>Created with Sketch.</desc>
    <defs></defs>
    <g id="Page-1" stroke="none" stroke-width="1" fill="none" fill-rule="evenodd" sketch:type="MSPage">
        <g id="カリキュラムbase" sketch:type="MSArtboardGroup" transform="translate(-654.000000, -1228.000000)">
            <g id="curriculum01" sketch:type="MSLayerGroup" transform="translate(134.000000, 927.000000)">
                <g id="Group-2" transform="translate(13.000000, 301.000000)">
                    <g id="Group" transform="translate(507.000000, 0.000000)">
                        <rect id="Rectangle-126" fill="#E78470" sketch:type="MSShapeGroup" x="0" y="0" width="160" height="160"></rect>
                        <g transform="translate(55.529412, 30.117647)" sketch:type="MSShapeGroup">
                            <path d="M6.61157025,8.60759268 C6.61157025,7.50521993 7.51196461,6.61157025 8.60759268,6.61157025 L40.3180272,6.61157025 C41.4203999,6.61157025 42.3140496,7.51196461 42.3140496,8.60759268 L42.3140496,40.3180272 C42.3140496,41.4203999 41.4136552,42.3140496 40.3180272,42.3140496 L8.60759268,42.3140496 C7.50521993,42.3140496 6.61157025,41.4136552 6.61157025,40.3180272 L6.61157025,8.60759268 Z M9.72409409,10.4564526 C10.2296822,10.4564526 10.6395423,10.0465925 10.6395423,9.54100445 C10.6395423,9.03541638 10.2296822,8.62555626 9.72409409,8.62555626 C9.21850601,8.62555626 8.8086459,9.03541638 8.8086459,9.54100445 C8.8086459,10.0465925 9.21850601,10.4564526 9.72409409,10.4564526 Z M9.72409409,40.8493325 C10.2296822,40.8493325 10.6395423,40.4394724 10.6395423,39.9338843 C10.6395423,39.4282962 10.2296822,39.0184361 9.72409409,39.0184361 C9.21850601,39.0184361 8.8086459,39.4282962 8.8086459,39.9338843 C8.8086459,40.4394724 9.21850601,40.8493325 9.72409409,40.8493325 Z M39.7507947,10.4564526 C40.2563827,10.4564526 40.6662428,10.0465925 40.6662428,9.54100445 C40.6662428,9.03541638 40.2563827,8.62555626 39.7507947,8.62555626 C39.2452066,8.62555626 38.8353465,9.03541638 38.8353465,9.54100445 C38.8353465,10.0465925 39.2452066,10.4564526 39.7507947,10.4564526 Z M39.7507947,40.8493325 C40.2563827,40.8493325 40.6662428,40.4394724 40.6662428,39.9338843 C40.6662428,39.4282962 40.2563827,39.0184361 39.7507947,39.0184361 C39.2452066,39.0184361 38.8353465,39.4282962 38.8353465,39.9338843 C38.8353465,40.4394724 39.2452066,40.8493325 39.7507947,40.8493325 Z" id="Rectangle-11" fill="#FFFFFF"></path>
                            <path d="M24.4628099,0.661157025 L24.4628099,4.62809917" id="Line" stroke="#FFFFFF" stroke-linecap="round"></path>
                            <path d="M28.4297521,0.661157025 L28.4297521,4.62809917" id="Line-5" stroke="#FFFFFF" stroke-linecap="round"></path>
                            <path d="M32.3966942,0.661157025 L32.3966942,4.62809917" id="Line-6" stroke="#FFFFFF" stroke-linecap="round"></path>
                            <path d="M48.2644628,24.4628099 L44.2975207,24.4628099" id="Line-12" stroke="#FFFFFF" stroke-linecap="round"></path>
                            <path d="M48.2644628,28.4297521 L44.2975207,28.4297521" id="Line-15" stroke="#FFFFFF" stroke-linecap="round"></path>
                            <path d="M48.2644628,32.3966942 L44.2975207,32.3966942" id="Line-16" stroke="#FFFFFF" stroke-linecap="round"></path>
                            <path d="M48.2644628,20.4958678 L44.2975207,20.4958678" id="Line-13" stroke="#FFFFFF" stroke-linecap="round"></path>
                            <path d="M48.2644628,16.5289256 L44.2975207,16.5289256" id="Line-14" stroke="#FFFFFF" stroke-linecap="round"></path>
                            <path d="M4.62809917,24.4628099 L0.661157025,24.4628099" id="Line-21" stroke="#FFFFFF" stroke-linecap="round"></path>
                            <path d="M4.62809917,28.4297521 L0.661157025,28.4297521" id="Line-17" stroke="#FFFFFF" stroke-linecap="round"></path>
                            <path d="M4.62809917,32.3966942 L0.661157025,32.3966942" id="Line-18" stroke="#FFFFFF" stroke-linecap="round"></path>
                            <path d="M4.62809917,20.4958678 L0.661157025,20.4958678" id="Line-19" stroke="#FFFFFF" stroke-linecap="round"></path>
                            <path d="M4.62809917,16.5289256 L0.661157025,16.5289256" id="Line-20" stroke="#FFFFFF" stroke-linecap="round"></path>
                            <path d="M20.4958678,0.661157025 L20.4958678,4.62809917" id="Line-3" stroke="#FFFFFF" stroke-linecap="round"></path>
                            <path d="M16.5289256,0.661157025 L16.5289256,4.62809917" id="Line-4" stroke="#FFFFFF" stroke-linecap="round"></path>
                            <path d="M24.4628099,44.2975207 L24.4628099,48.2644628" id="Line-11" stroke="#FFFFFF" stroke-linecap="round"></path>
                            <path d="M28.4297521,44.2975207 L28.4297521,48.2644628" id="Line-7" stroke="#FFFFFF" stroke-linecap="round"></path>
                            <path d="M32.3966942,44.2975207 L32.3966942,48.2644628" id="Line-8" stroke="#FFFFFF" stroke-linecap="round"></path>
                            <path d="M20.4958678,44.2975207 L20.4958678,48.2644628" id="Line-9" stroke="#FFFFFF" stroke-linecap="round"></path>
                            <path d="M16.5289256,44.2975207 L16.5289256,48.2644628" id="Line-10" stroke="#FFFFFF" stroke-linecap="round"></path>
                        </g>
                    </g>
                </g>
            </g>
        </g>
    </g>
</svg>