<?xml version="1.0" encoding="UTF-8" standalone="no"?>
<svg width="680px" height="163px" viewBox="0 0 680 163" version="1.1" xmlns="http://www.w3.org/2000/svg" xmlns:xlink="http://www.w3.org/1999/xlink" xmlns:sketch="http://www.bohemiancoding.com/sketch/ns">
    <!-- Generator: Sketch 3.3.3 (12072) - http://www.bohemiancoding.com/sketch -->
    <title>curriculum01</title>
    <desc>Created with Sketch.</desc>
    <defs></defs>
    <g id="Page-1" stroke="none" stroke-width="1" fill="none" fill-rule="evenodd" sketch:type="MSPage">
        <g id="カリキュラムbase" sketch:type="MSArtboardGroup" transform="translate(-134.000000, -943.000000)">
            <g id="curriculum01" sketch:type="MSLayerGroup" transform="translate(134.000000, 927.000000)">
                <g>
                    <g id="Rectangle-42-+-全専攻共通科目" transform="translate(13.000000, 125.000000)">
                        <rect id="Rectangle-42" fill="#5095A8" sketch:type="MSShapeGroup" x="0" y="0" width="667" height="54"></rect>
                        <text id="全専攻共通科目" sketch:type="MSTextLayer" font-family="Hiragino Kaku Gothic ProN" font-size="24" font-weight="313" fill="#FCF9F9">
                            <tspan x="250" y="34">全専攻共通科目</tspan>
                        </text>
                    </g>
                    <g id="menA01" transform="translate(369.000000, 0.000000)" fill="#4A4A4A" sketch:type="MSShapeGroup">
                        <path d="M57.4752475,78.8613861 L66.1633663,78.8613861 L66.1633663,121.585456 C66.1633663,121.585456 64.6946845,124.362947 61.8193069,124.362947 C58.9439294,124.362947 57.4752475,121.585456 57.4752475,121.585456 L57.4752475,78.8613861 Z" id="Rectangle-60"></path>
                        <path d="M53.2914113,42.0708711 C54.7237252,39.0837356 57.5638451,38.0940594 57.5638451,38.0940594 L57.5638449,50.3112867 L55.5492716,76.0557144 C55.5492716,76.0557144 55.2190546,77.9667822 52.7860428,77.9667822 C50.3530311,77.9667822 49.8564397,76.0557144 49.8564397,76.0557144 C49.8564397,76.0557144 51.8590973,45.0580066 53.2914113,42.0708711 Z" id="Rectangle-60-Copy-2"></path>
                        <path d="M82.2295219,42.0708711 C83.6618359,39.0837356 86.5019558,38.0940594 86.5019558,38.0940594 L86.5019555,50.3112867 L84.4873822,76.0557144 C84.4873822,76.0557144 84.1571653,77.9667822 81.7241535,77.9667822 C79.2911417,77.9667822 78.7945504,76.0557144 78.7945504,76.0557144 C78.7945504,76.0557144 80.797208,45.0580066 82.2295219,42.0708711 Z" id="Rectangle-60-Copy-3" transform="translate(82.648253, 58.030421) scale(-1, 1) translate(-82.648253, -58.030421) "></path>
                        <path d="M70.1732673,78.8613861 L78.8613861,78.8613861 L78.8613861,121.585456 C78.8613861,121.585456 77.3927043,124.362947 74.5173267,124.362947 C71.6419492,124.362947 70.1732673,121.585456 70.1732673,121.585456 L70.1732673,78.8613861 Z" id="Rectangle-60-Copy"></path>
                        <path d="M59.3196008,28.4004859 C59.3196008,28.4004859 63.1083229,25.275434 64.509921,22.8583445 C66.5070537,28.8740692 76.6651335,29.1935372 76.6651335,29.1935372 C76.6651335,29.1935372 77.7128713,27.6437001 77.7128713,26.0693069 C77.7128713,25.8031336 77.7017567,25.5395562 77.6799662,25.2790136 C77.2787231,20.4814526 73.257679,16.7128713 68.3564356,16.7128713 C63.1890189,16.7128713 59,20.9018902 59,26.0693069 C59,26.6709682 59.3196008,28.4004859 59.3196008,28.4004859 Z" id="Oval-11"></path>
                        <rect id="Rectangle-58" x="66.1633663" y="38.7623762" width="4.00990099" height="2.0049505"></rect>
                        <path d="M66.1633663,41.4356436 L70.1732673,41.4356436 L70.1732673,46.4047879 L68.1683168,48.2175199 L66.1633663,46.4047879 L66.1633663,41.4356436 Z" id="Rectangle-58-Copy"></path>
                        <path d="M57.4752475,38.0940594 L59.1865986,38.0940594 L68.1683168,49.8959492 L77.5236904,38.0940594 L78.8613861,38.0940594 L78.8613861,80.1980198 L57.4752475,80.1980198 L57.4752475,38.0940594 Z M68.1683168,54.1336634 C68.537418,54.1336634 68.8366337,53.8344477 68.8366337,53.4653465 C68.8366337,53.0962453 68.537418,52.7970297 68.1683168,52.7970297 C67.7992156,52.7970297 67.5,53.0962453 67.5,53.4653465 C67.5,53.8344477 67.7992156,54.1336634 68.1683168,54.1336634 Z M68.1683168,58.1435644 C68.537418,58.1435644 68.8366337,57.8443487 68.8366337,57.4752475 C68.8366337,57.1061463 68.537418,56.8069307 68.1683168,56.8069307 C67.7992156,56.8069307 67.5,57.1061463 67.5,57.4752475 C67.5,57.8443487 67.7992156,58.1435644 68.1683168,58.1435644 Z" id="Rectangle-57"></path>
                    </g>
                    <g id="manB01" transform="translate(0.000000, 62.000000)" fill="#4A4A4A" sketch:type="MSShapeGroup">
                        <path d="M4.15352969,62.9703976 C4.15352969,60.6517149 5.12374231,56.718321 6.77038329,55.7099311 C10.6862644,54.208795 22.0324641,51.7737602 22.0324641,51.7737602 L33.6943129,59.4678436 C33.6943129,59.4678436 32.6021494,61.932256 30.2427727,62.3750454 C30.2427727,62.3750454 12.2859498,62.7159087 12.2859498,62.7159088 C12.2859498,69.9429324 8.80365297,83.0598991 8.80365297,83.0598991 C8.80365297,83.0598991 7.42890914,85.6597391 4.73744292,85.6597391 C2.0459767,85.6597391 0.671232877,83.0598991 0.671232877,83.0598991 C0.671232877,83.0598991 4.15352969,70.1125916 4.15352969,62.9703976 Z" id="Rectangle-60"></path>
                        <path d="M40.6930699,29.1474141 C42.033772,26.3513381 44.6922356,25.4249623 44.6922356,25.4249623 L44.6922354,36.8607664 L42.8065157,60.9585608 C42.8065157,60.9585608 42.4974197,62.7473953 40.2200252,62.7473953 C37.9426308,62.7473953 37.4778018,60.9585608 37.4778018,60.9585608 C37.4778018,60.9585608 39.3523679,31.9434901 40.6930699,29.1474141 Z" id="Rectangle-60-Copy-3" transform="translate(41.085019, 44.086179) scale(-1, 1) translate(-41.085019, -44.086179) "></path>
                        <path d="M38.4497182,10.184758 C38.7893729,11.2078594 37.7931742,11.2869075 38.4497182,14.7143562 C38.9040057,14.2882639 39.5112369,13.3171048 40.8641951,12.7302408 C41.1598464,12.8428682 42.2613916,12.7302408 42.2613916,14.3824214 C42.2613916,16.1173814 39.6295218,16.4403375 39.6295218,16.4403375 L39.1332215,20.456873 C39.1332215,20.456873 40.8091357,20.2223937 42.6855438,18.3313656 C44.5619518,16.4403375 45.3571759,14.7143564 45.3571759,14.7143564 C45.3571759,14.7143564 46.3378995,13.2636481 46.3378995,11.7899543 C46.3378995,11.5408057 46.3274958,11.2940869 46.3070991,11.0502088 C45.9315198,6.55950343 41.5700294,2.42755802 36.9822733,2.42755802 C34.7157333,2.42755802 28.617704,0.580958275 28.617704,0.580958275 C28.617704,0.580958275 28.6750902,1.67440455 28.8219178,2.15339696 C29.05098,2.90066121 29.9495874,4.05923381 29.9495874,4.05923381 L29.1210767,4.05923377 C29.1210767,4.05923377 27.4828977,10.184758 38.4497182,10.184758 Z" id="Oval-11"></path>
                        <path d="M28.9467403,26.7537751 C29.2434589,25.6895118 30.3064708,24.4569591 31.3424312,24.0978714 C31.3424312,24.0978714 31.8363562,23.54825 34.9994423,23.54825 C38.1625285,23.54825 40.0208312,25.701212 40.0208312,25.701212 C40.0208312,25.701212 42.8074614,27.2362734 40.4330934,37.6476219 C37.2121904,47.5521016 33.6842894,59.5422686 33.6842894,59.5422686 L21.9716243,51.77196 L28.9467403,26.7537751 Z" id="Rectangle-57"></path>
                    </g>
                    <g id="womanC01" transform="translate(190.000000, 3.000000)" fill="#4A4A4A" sketch:type="MSShapeGroup">
                        <path d="M60.6276214,28.9442945 C60.6276214,32.3073721 60.4991543,33.1350383 62.0408908,34.9541867 C63.5826272,36.773335 65.7408001,36.4458299 65.7408001,36.4458299 C65.7408001,36.4458299 64.5981433,35.1932347 64.1121742,33.34185 C63.6262051,31.4904654 64.7071486,28.431586 64.7071486,28.431586 L70.2753818,28.431586 L70.940121,26.1359292 L72.0029771,28.431586 L73.7015867,28.431586 C73.7015867,28.431586 74.781082,31.443944 74.1269663,33.5971689 C73.4728506,35.7503939 72.0029774,36.4458299 72.0029774,36.4458299 C72.0029774,36.4458299 74.8391913,36.6356886 76.2776783,35.1876974 C77.7161654,33.7397062 77.8552762,32.3073721 77.8552762,32.3073721 C77.8552762,32.3073721 78.1276214,28.3473492 78.1276214,26.875 C78.1276214,26.6260786 78.1172272,26.379585 78.0968491,26.1359294 C77.7216124,21.6493214 73.9611916,18.125 69.3776214,18.125 C64.5451298,18.125 60.6276214,22.0425084 60.6276214,26.875 C60.6276214,27.4376648 60.6276214,28.9442945 60.6276214,28.9442945 Z" id="Oval-11-Copy"></path>
                        <path d="M60.8958623,61.2683463 L57.5238049,42.7496547 L65.0631166,39.375 L68.8298595,45.6834292 L72.9948211,39.375 L81.2250495,42.7496547 L77.613492,61.2683463 L87.3804379,84.7186804 L51.25,84.7186804 L60.8958623,61.2683463 Z M68.5944919,47.2079693 C69.0559363,47.5072199 69.0390342,47.9662093 68.5587303,48.232049 L67.1127586,49.0323689 C66.6315636,49.2987019 66.2570048,49.0699782 66.2765496,48.5102884 L66.3372795,46.7712108 C66.3566491,46.2165407 66.7472802,46.0100366 67.2078701,46.308733 L68.5944919,47.2079693 Z M69.301171,47.2079693 C68.8397266,47.5072199 68.8566287,47.9662093 69.3369326,48.232049 L70.7829043,49.0323689 C71.2640993,49.2987019 71.6386581,49.0699782 71.6191133,48.5102884 L71.5583834,46.7712108 C71.5390139,46.2165407 71.1483827,46.0100366 70.6877928,46.308733 L69.301171,47.2079693 Z" id="Rectangle-57-Copy"></path>
                        <path d="M55.3812865,45.5940554 C56.7207653,42.8005305 59.3768033,41.875 59.3768033,41.875 L60.5061725,51.8617719 L59.3768034,53.3028579 L54.0186962,77.8766751 C54.0186962,77.8766751 53.0301898,79.9407291 51.0743769,79.5625401 C49.1185641,79.184351 48.8258251,77.1496868 48.8258251,77.1496868 C48.8258251,77.1496868 54.0418077,48.3875802 55.3812865,45.5940554 Z" id="Rectangle-60-Copy-7"></path>
                        <path d="M84.6804614,45.5940554 C86.0199402,42.8005305 88.6759782,41.875 88.6759782,41.875 L89.8053474,51.8617719 L88.6759783,53.3028579 L83.3178712,77.8766751 C83.3178712,77.8766751 82.3293647,79.9407291 80.3735518,79.5625401 C78.417739,79.184351 78.125,77.1496868 78.125,77.1496868 C78.125,77.1496868 83.3409826,48.3875802 84.6804614,45.5940554 Z" id="Rectangle-60-Copy-8" transform="translate(83.965174, 60.741909) scale(-1, 1) translate(-83.965174, -60.741909) "></path>
                        <g id="Rectangle-60-Copy-4-+-Rectangle-60-Copy-6" transform="translate(61.250000, 85.000000)">
                            <path d="M0,0.125007629 L7.36714761,0.125007629 L7.36714761,33.9529793 C7.36714761,33.9529793 6.22972194,36.5504472 4.00287596,36.5504472 C1.77602998,36.5504472 0.638604305,33.9529793 0.638604305,33.9529793 L0,0.125007629 Z" id="Rectangle-60-Copy-4"></path>
                            <path d="M8.88750076,0.125007629 L16.2546484,0.125007629 L16.2546484,33.9529793 C16.2546484,33.9529793 15.1172227,36.5504472 12.8903767,36.5504472 C10.6635307,36.5504472 9.52610507,33.9529793 9.52610507,33.9529793 L8.88750076,0.125007629 Z" id="Rectangle-60-Copy-6"></path>
                        </g>
                    </g>
                    <g id="womanD01" transform="translate(576.000000, 56.000000)" fill="#4A4A4A" sketch:type="MSShapeGroup">
                        <path d="M13.9916976,13.6011871 C19.3369218,11.8772062 24.2855337,6.93553353 24.2855337,6.93553353 C24.2855337,6.93553353 27.8185897,13.4057706 29.260161,13.9148504 C30.276148,6.60053695 26.0353524,3.12725389 21.4517822,3.12725389 C16.6192907,3.12725389 13.2182404,6.82643052 13.2182404,11.6589221 C13.2182404,12.2215868 13.9916976,13.6011871 13.9916976,13.6011871 Z" id="Oval-11-Copy"></path>
                        <path d="M12.8958623,44.2683463 L9.5238049,25.7496547 L13.4148748,24.0627987 L21.3152189,32.0637936 L29.8197408,24.0627987 L33.2250495,25.7496547 L29.613492,44.2683463 L39.3804379,67.7186804 L3.25,67.7186804 L12.8958623,44.2683463 Z M21.375,36.125 C21.720178,36.125 22,35.845178 22,35.5 C22,35.154822 21.720178,34.875 21.375,34.875 C21.029822,34.875 20.75,35.154822 20.75,35.5 C20.75,35.845178 21.029822,36.125 21.375,36.125 Z M21.375,39.875 C21.720178,39.875 22,39.595178 22,39.25 C22,38.904822 21.720178,38.625 21.375,38.625 C21.029822,38.625 20.75,38.904822 20.75,39.25 C20.75,39.595178 21.029822,39.875 21.375,39.875 Z" id="Rectangle-57-Copy"></path>
                        <rect id="Rectangle-58-Copy-5" x="19.5" y="22.375" width="3.75" height="1.875"></rect>
                        <path d="M19.4402189,24.875 L23.1902189,24.875 L23.1902189,29.5220702 L21.3152189,31.2173103 L19.4402189,29.5220702 L19.4402189,24.875 Z" id="Rectangle-58-Copy-4"></path>
                        <path d="M7.38128649,28.5940554 C8.72076528,25.8005305 11.3768033,24.875 11.3768033,24.875 L12.5061725,34.8617719 L11.3768034,36.3028579 L6.01869625,60.8766751 C6.01869625,60.8766751 5.03018977,62.9407291 3.07437694,62.5625401 C1.1185641,62.184351 0.82582509,60.1496868 0.82582509,60.1496868 C0.82582509,60.1496868 6.0418077,31.3875802 7.38128649,28.5940554 Z" id="Rectangle-60-Copy-7"></path>
                        <path d="M36.6804614,28.5940554 C38.0199402,25.8005305 40.6759782,24.875 40.6759782,24.875 L41.8053474,34.8617719 L40.6759783,36.3028579 L35.3178712,60.8766751 C35.3178712,60.8766751 34.3293647,62.9407291 32.3735518,62.5625401 C30.417739,62.184351 30.125,60.1496868 30.125,60.1496868 C30.125,60.1496868 35.3409826,31.3875802 36.6804614,28.5940554 Z" id="Rectangle-60-Copy-8" transform="translate(35.965174, 43.741909) scale(-1, 1) translate(-35.965174, -43.741909) "></path>
                        <g id="Rectangle-60-Copy-4-+-Rectangle-60-Copy-6-Copy" transform="translate(24.072884, 69.055080) rotate(-23.000000) translate(-24.072884, -69.055080) translate(16.112242, 53.452221)" stroke="#FFFFFF">
                            <path d="M0.755832702,3.94395068 C0.774246426,3.24035935 1.17576355,2.27429195 1.69557374,1.81816014 C1.69557374,1.81816014 2.63211415,0.554688829 4.50463829,0.656749054 C6.37716242,0.758809279 7.18158286,2.11717008 7.18158286,2.11717008 C7.63214726,2.6394623 7.96900092,3.62646348 7.93328866,4.33515139 L6.75969899,27.624317 C6.72429023,28.326982 6.37127165,29.3474461 5.89197541,29.8565588 C5.89197541,29.8565588 5.47418646,30.9892506 3.29537659,30.8704965 C1.11656671,30.7517425 0.809088153,29.5732099 0.809088153,29.5732099 C0.424199896,29.001359 0.126955756,27.9734397 0.145527312,27.2638176 L0.755832702,3.94395068 L0.755832702,3.94395068 Z" id="Rectangle-60-Copy-6"></path>
                            <path d="M7.53158036,4.85794589 C7.50475262,3.74874479 8.08090271,2.19764196 8.93114324,1.47338151 C8.93114324,1.47338151 9.21697104,0.636851396 11.0920649,0.636851396 C12.9671588,0.636851396 13.2529864,1.47338151 13.2529864,1.47338151 C14.0527711,2.2334237 14.7011248,3.74003584 14.7011248,4.85794589 L14.701125,26.710367 C14.701125,27.8195681 14.1937888,29.4487639 13.3904916,30.2045775 C13.3904916,30.2045775 13.5867079,30.8750113 11.4049079,30.8750113 C9.22310798,30.8750113 9.41932428,30.2045775 9.41932428,30.2045775 C8.69548143,29.3839794 8.08715332,27.828277 8.06011494,26.710367 L7.53158036,4.85794589 Z" id="Rectangle-60-Copy-6"></path>
                        </g>
                        <path d="M26.509892,2.87328353 C26.8491897,2.45977646 27.489047,2.37702016 27.9404294,2.68939458 L30.1126712,4.19267162 C30.5634375,4.50461964 30.6561661,5.08983429 30.3145029,5.50622426 L30.3145029,5.50622426 C29.9752052,5.91973133 29.335348,6.00248762 28.8839656,5.6901132 L26.7117237,4.18683616 C26.2609574,3.87488815 26.1682288,3.2896735 26.509892,2.87328353 L26.509892,2.87328353 L26.509892,2.87328353 Z" id="Rectangle-104" transform="translate(28.412197, 4.189754) rotate(1.000000) translate(-28.412197, -4.189754) "></path>
                        <path d="M32.8434435,0.204976125 C35.3348661,0.523015557 37.4200545,1.54436743 38.0107174,3.94746177 C38.1876781,8.98145383 34.8926515,12.8470881 37.502183,14.1679682 C40.1117145,15.4888484 41.694956,12.7344088 41.694956,12.7344088 C41.694956,12.7344088 41.3629899,18.9516038 37.5649934,18.8358486 C33.7669968,18.7200934 32.8815141,16.0302121 32.5879307,15.3915244 C31.3637707,11.4106917 34.0772602,5.90446185 34.0893273,4.9402985 C34.1013944,3.97613515 34.1997692,3.36654901 32.7423798,3.05100087 C31.2849903,2.73545273 30.4107047,3.82685249 30.4107049,3.82685234 C31.1347856,4.32794468 29.9524626,3.50973054 28.4121975,2.44380635 C30.1339577,0.126388998 32.8434435,0.204976124 32.8434435,0.204976125 L32.8434435,0.204976125 Z" id="Rectangle-104-Copy"></path>
                    </g>
                </g>
            </g>
        </g>
    </g>
</svg>