<?xml version="1.0" encoding="UTF-8" standalone="no"?>
<svg width="406px" height="83px" viewBox="0 0 406 83" version="1.1" xmlns="http://www.w3.org/2000/svg" xmlns:xlink="http://www.w3.org/1999/xlink" xmlns:sketch="http://www.bohemiancoding.com/sketch/ns">
    <!-- Generator: Sketch 3.3.3 (12072) - http://www.bohemiancoding.com/sketch -->
    <title>吹き出し</title>
    <desc>Created with Sketch.</desc>
    <defs></defs>
    <g id="Page-1" stroke="none" stroke-width="1" fill="none" fill-rule="evenodd" sketch:type="MSPage">
        <g id="キャンパスライフ詳細-2" sketch:type="MSArtboardGroup" transform="translate(-60.000000, -576.000000)">
            <g id="一日の流れ" sketch:type="MSLayerGroup" transform="translate(42.000000, 576.000000)">
                <g id="吹き出し" transform="translate(18.655296, 0.000000)">
                    <path d="M0,1.99694655 C0,0.894063426 0.892340416,0 2.00081644,0 L403.21187,0 C404.31689,0 405.212686,0.886738706 405.212686,1.99694655 L405.212686,59.0656818 C405.212686,60.1685649 404.319427,61.0626283 403.213012,61.0626283 L73.6334086,61.0626283 L83.4191606,82.2121749 L53.1166199,61.0626283 L2.00130346,61.0626283 C0.896014078,61.0626283 0,60.1758896 0,59.0656818 L0,1.99694655 Z" id="Rectangle-93" fill="#48898D" sketch:type="MSShapeGroup"></path>
                    <text id="情報学群生のとある一日" sketch:type="MSTextLayer" font-family="Hiragino Kaku Gothic ProN" font-size="24.2356241" font-weight="313" fill="#FFFFFF">
                        <tspan x="93.6720954" y="39.788501">大学院生のとある一日</tspan>
                    </text>
                    <g id="Oval-6-+-Line-+-Line-3" transform="translate(30.656322, 14.091376)" stroke="#FFFFFF" stroke-width="2" sketch:type="MSShapeGroup">
                        <ellipse id="Oval-6" cx="18.7344191" cy="17.2227926" rx="18.7344191" ry="17.2227926"></ellipse>
                        <path d="M18.7344191,6.20020534 L18.7344191,17.2227926" id="Line" stroke-linecap="square"></path>
                        <path d="M18.7344191,18.4800565 L30.7244473,18.4800565" id="Line-3" stroke-linecap="square"></path>
                    </g>
                </g>
            </g>
        </g>
    </g>
</svg>