<?xml version="1.0" encoding="UTF-8" standalone="no"?>
<svg width="39px" height="60px" viewBox="0 0 39 60" version="1.1" xmlns="http://www.w3.org/2000/svg" xmlns:xlink="http://www.w3.org/1999/xlink" xmlns:sketch="http://www.bohemiancoding.com/sketch/ns">
    <!-- Generator: Sketch 3.3.3 (12072) - http://www.bohemiancoding.com/sketch -->
    <title>Oval 191</title>
    <desc>Created with Sketch.</desc>
    <defs></defs>
    <g id="Page-1" stroke="none" stroke-width="1" fill="none" fill-rule="evenodd" sketch:type="MSPage">
        <g id="Artboard-6-Copy" sketch:type="MSArtboardGroup" transform="translate(-25.000000, -7.000000)" fill="#C52E2E">
            <path d="M36.7830915,43.3152275 C38.9681221,44.2099272 44.5,67.1110344 44.5,67.1110344 C44.5,67.1110344 49.9448623,44.3974382 52.3332757,43.3152287 C58.9188704,40.3312422 63.5,33.7006112 63.5,26 C63.5,15.5065898 54.9934102,7 44.5,7 C34.0065898,7 25.5,15.5065898 25.5,26 C25.5,33.946967 29.8571782,40.479289 36.7830915,43.3152275 Z M44.5,34 C48.918278,34 52.5,30.418278 52.5,26 C52.5,21.581722 48.918278,18 44.5,18 C40.081722,18 36.5,21.581722 36.5,26 C36.5,30.418278 40.081722,34 44.5,34 Z" id="Oval-191" sketch:type="MSShapeGroup"></path>
        </g>
    </g>
</svg>