<?xml version="1.0" encoding="UTF-8" standalone="no"?>
<svg width="24px" height="24px" viewBox="0 0 24 24" version="1.1" xmlns="http://www.w3.org/2000/svg" xmlns:xlink="http://www.w3.org/1999/xlink" xmlns:sketch="http://www.bohemiancoding.com/sketch/ns">
    <!-- Generator: Sketch 3.3.3 (12072) - http://www.bohemiancoding.com/sketch -->
    <title>Shape</title>
    <desc>Created with Sketch.</desc>
    <defs></defs>
    <g id="Page-1" stroke="none" stroke-width="1" fill="none" fill-rule="evenodd" sketch:type="MSPage">
        <g id="カリキュラムbase" sketch:type="MSArtboardGroup" transform="translate(-468.000000, -1762.000000)" fill="#4A4A4A">
            <path d="M491.25,1771 L483,1771 L483,1762.75 C483,1762.33562 482.664375,1762 482.25,1762 L477.75,1762 C477.335625,1762 477,1762.33562 477,1762.75 L477,1771 L468.75,1771 C468.335625,1771 468,1771.33562 468,1771.75 L468,1776.25 C468,1776.66438 468.335625,1777 468.75,1777 L477,1777 L477,1785.25 C477,1785.66438 477.335625,1786 477.75,1786 L482.25,1786 C482.664375,1786 483,1785.66438 483,1785.25 L483,1777 L491.25,1777 C491.664375,1777 492,1776.66438 492,1776.25 L492,1771.75 C492,1771.33562 491.664375,1771 491.25,1771 L491.25,1771 Z" id="Shape" sketch:type="MSShapeGroup"></path>
        </g>
    </g>
</svg>