<?xml version="1.0" encoding="UTF-8" standalone="no"?>
<svg width="104px" height="85px" viewBox="0 0 104 85" version="1.1" xmlns="http://www.w3.org/2000/svg" xmlns:xlink="http://www.w3.org/1999/xlink" xmlns:sketch="http://www.bohemiancoding.com/sketch/ns">
    <!-- Generator: Sketch 3.3.3 (12081) - http://www.bohemiancoding.com/sketch -->
    <title>WebDesignerアイコン</title>
    <desc>Created with Sketch.</desc>
    <defs></defs>
    <g id="Page-1" stroke="none" stroke-width="1" fill="none" fill-rule="evenodd" sketch:type="MSPage">
        <g id="制作者一覧" sketch:type="MSArtboardGroup" transform="translate(-158.000000, -1793.000000)" fill="#FFFFFF">
            <g id="WebDesignerアイコン" sketch:type="MSLayerGroup" transform="translate(158.000000, 1793.000000)">
                <path d="M101.898638,2.88659778 C101.704112,2.39478685 101.255838,2.04871549 100.730283,1.9845035 C100.206173,1.92053201 99.6866373,2.14852064 99.379201,2.57900552 C97.5540841,5.13521988 95.1591147,5.98729134 92.3847251,6.97403963 C90.147687,7.7700759 87.8343314,8.59256655 85.3341548,10.3856924 C81.7982767,12.9214647 80.180926,16.3780899 80.9874346,19.6543443 L80.9012465,19.7647312 C79.4247339,17.6250531 77.8182169,15.6460251 76.1228636,13.8788727 C68.1909118,5.61115819 57.1075578,0.640621117 45.7136377,0.242121991 C45.2116764,0.224565904 44.7015296,0.215667614 44.1974015,0.215667614 C31.4747887,0.215667614 19.2972312,5.89710596 10.7874821,15.8028274 C2.32227162,25.6573236 -1.42979895,38.4855323 0.493784231,50.9982125 C0.654604452,52.0441224 0.855870478,53.1008545 1.09252658,54.1397901 C4.22129843,67.8965475 12.2124745,78.3616588 23.0172821,82.8507262 C25.6806865,83.9574811 28.3672027,84.5183139 31.0012357,84.5183139 C37.5455113,84.5183139 43.2616108,81.0217667 46.684337,74.9252351 C47.9853437,72.6054267 48.8248349,70.2064956 49.1784949,67.7943374 C49.3869834,66.3706108 49.2444601,64.9480868 49.1062703,63.5695732 C48.9639877,62.1506566 48.8296498,60.8096602 49.0446386,59.4595249 C49.5374514,56.3646032 51.7015427,54.5166447 54.8339258,54.5166447 C55.7249372,54.5166447 56.6354493,54.6631058 57.5447576,54.9524205 C56.4801663,56.9028296 55.513319,58.7652178 54.6685313,60.4914862 C52.8780822,64.1498861 51.6430407,67.1796338 50.9966301,69.4955943 C50.5981908,70.9238902 49.5396182,74.7196124 52.1209272,76.5093713 C52.9406769,77.0776595 53.9799897,77.2782318 55.0616742,77.0771785 C56.0364662,76.8963267 59.0024918,76.3458352 67.4308677,66.7609332 C69.6929438,64.1888462 72.1305257,61.2122477 74.6783706,57.9121843 C81.219035,55.7116611 86.3089468,50.2353644 87.655455,43.9425895 C87.9925034,42.369516 88.1331007,40.6860556 88.0731543,38.9374212 C90.5220514,35.1568501 92.6700125,31.6292791 94.8314555,27.8371643 C94.8728643,27.7640541 94.9137916,27.6861339 94.9542374,27.6062898 C98.0914355,26.7479655 100.79336,24.3091123 102.379413,20.8986621 C104.694935,15.9211506 104.524244,9.52400114 101.898638,2.88659778 L101.898638,2.88659778 Z M66.5393748,26.4562458 C65.4047256,28.256346 63.4544193,29.3311152 61.3216253,29.3311152 C60.1636234,29.3311152 59.0309002,29.0038024 58.0462375,28.384289 C56.6542277,27.5084086 55.6861766,26.1436032 55.3219237,24.5411894 C54.9576707,22.9387756 55.2388653,21.2901868 56.1159133,19.8994081 C57.2508033,18.0993079 59.2013504,17.0245387 61.3341443,17.0245387 C62.4923869,17.0245387 63.6248694,17.3518515 64.6092914,17.9716054 C66.0013012,18.8470048 66.9691115,20.2118102 67.3336052,21.8144645 C67.6978582,23.4171188 67.4159413,25.065467 66.5393748,26.4562458 L66.5393748,26.4562458 Z M74.5339213,37.6038801 C77.6477668,33.0207794 80.9407293,28.4650951 84.0685382,24.4127654 C84.5755552,24.8701856 85.1425187,25.3170241 85.756669,25.7426991 C86.7743143,26.448069 87.8386649,26.9935102 88.9258866,27.3669979 C86.2851127,31.8781908 83.4457209,36.3475376 80.0078276,41.4058551 C74.3591377,49.719985 68.4858291,57.4429799 63.4695864,63.1523156 C60.6677515,66.3412705 58.2157246,68.8034516 56.3263278,70.3284262 C57.055556,67.9980361 58.449251,64.7997018 60.3889644,61.0102324 C63.8574328,54.2338234 68.880898,45.9213769 74.5339213,37.6038801 L74.5339213,37.6038801 Z M19.8632317,37.564439 C18.704989,37.564439 17.5722658,37.2371262 16.5873623,36.6173723 C15.1953525,35.7417324 14.227783,34.377408 13.8632892,32.7745132 C13.4987955,31.1718589 13.7809531,29.5232702 14.6580011,28.1324914 C15.7921689,26.3326317 17.7427159,25.2578625 19.8752691,25.2578625 C21.0337525,25.2578625 22.1664758,25.5851753 23.1511385,26.2049292 C26.0247166,28.0129657 26.8904494,31.8192697 25.0817034,34.6893291 C23.9463319,36.4896698 21.9955441,37.564439 19.8632317,37.564439 L19.8632317,37.564439 Z M13.4068294,51.1126878 C14.5414787,49.3123471 16.491785,48.2375779 18.6245789,48.2375779 C19.7825808,48.2375779 20.9150633,48.5651312 21.9002075,49.1846446 C23.2922173,50.0602845 24.2597869,51.4248494 24.6242806,53.0275037 C24.9890151,54.629677 24.7068574,56.2780253 23.8295687,57.669285 C22.6954009,59.4689042 20.7448539,60.5439139 18.6123007,60.5439139 C17.4540581,60.5439139 16.3210941,60.2166011 15.3359498,59.5968472 C13.9439401,58.7209668 12.9766113,57.3566424 12.6123583,55.7539881 C12.248346,54.1518148 12.5307444,52.5032261 13.4068294,51.1126878 L13.4068294,51.1126878 Z M33.1318629,14.5710154 C34.2665121,12.7709153 36.2170592,11.696146 38.3496124,11.696146 C39.5073735,11.696146 40.6400968,12.0234588 41.6247595,12.6429723 C44.4985783,14.4505277 45.3643111,18.2570722 43.5553244,21.1276127 C42.4201936,22.9279533 40.4696466,24.0027225 38.3370934,24.0027225 C37.1790915,24.0027225 36.0463683,23.6754097 35.0617055,23.0556558 C33.6699365,22.1802564 32.7026077,20.8156915 32.338114,19.2127967 C31.9731388,17.6103829 32.2552964,15.9620347 33.1318629,14.5710154 L33.1318629,14.5710154 Z" id="Shape" sketch:type="MSShapeGroup"></path>
            </g>
        </g>
    </g>
</svg>