<?xml version="1.0" encoding="UTF-8" standalone="no"?>
<svg width="160px" height="160px" viewBox="0 0 160 160" version="1.1" xmlns="http://www.w3.org/2000/svg" xmlns:xlink="http://www.w3.org/1999/xlink" xmlns:sketch="http://www.bohemiancoding.com/sketch/ns">
    <!-- Generator: Sketch 3.3.3 (12072) - http://www.bohemiancoding.com/sketch -->
    <title>Group</title>
    <desc>Created with Sketch.</desc>
    <defs></defs>
    <g id="Page-1" stroke="none" stroke-width="1" fill="none" fill-rule="evenodd" sketch:type="MSPage">
        <g id="カリキュラムbase" sketch:type="MSArtboardGroup" transform="translate(-316.000000, -1228.000000)">
            <g id="curriculum01" sketch:type="MSLayerGroup" transform="translate(134.000000, 927.000000)">
                <g id="Group-2" transform="translate(13.000000, 301.000000)">
                    <g id="Group" transform="translate(169.000000, 0.000000)">
                        <rect id="Rectangle-122" fill="#547ED3" sketch:type="MSShapeGroup" x="0" y="0" width="160" height="160"></rect>
                        <path d="M59.7701519,39.9424022 C59.7701519,39.9424022 58.8930893,41.1493345 59.1699136,45.6637258 C59.4266345,49.0854986 60.3820374,48.4839842 60.3820375,50.0070768 C60.3820375,50.0070768 58.1923328,55.4457582 57.2165069,56.9126881 C57.2165069,57.7994846 59.8044558,58.6489433 59.8044558,58.6489433 C59.8044558,58.6489433 59.4266345,60.2952112 59.4266344,60.9828838 C60.0892578,61.9178635 60.6451403,62.4126378 60.6451403,62.4126378 L60.5741392,63.9165839 L61.7360038,65.6908137 C61.7360038,65.6908137 62.0911687,70.0207611 62.9158976,70.0207611 C66.9658306,69.7246317 70.8302031,70.2495596 70.8302031,70.2495596 C70.8302031,70.2495596 75.7027903,74.5353096 76.6096894,80 C77.3812076,75.2986139 86.9308495,66.7987479 90.6541783,67.214703 C89.7037225,66.0166204 89.9546992,63.2654489 90.2157268,62.1211346 C91.4342329,58.134384 95.269088,54.6817566 97.3137589,49.2957897 C97.5459083,48.2598122 97.5459083,47.4135439 97.5459085,46.620725 C96.978219,37.0004801 88.870855,31.8191573 88.870855,31.8191573 C88.870855,31.8191573 80.8930474,27.2816309 70.8302029,29.9101063 C63.1833089,31.5622771 59.7701519,39.9424022 59.7701519,39.9424022 Z M71.307718,32.6153778 C65.6376142,34.4421008 63.6073401,37.6362623 63.6073401,40.4669352 C63.6073401,46.4432386 69.8496909,45.9205694 69.8496912,45.92057 C75.2460662,45.9205694 75.817266,47.2211326 76.5330123,48.0339396 C77.4665759,48.8519857 77.0346847,49.4853326 78.4058223,51.4290193 C79.7769599,53.3727059 81.162665,51.7086841 81.9192609,52.7791607 C82.9247971,54.6817576 82.3452174,54.6817576 83.9683895,55.7280329 C88.051981,57.7275826 92.2095914,53.7410531 92.2095914,53.7410531 C92.2095914,53.7410531 94.5916077,51.4177605 94.9769096,48.03394 C95.3871543,44.4310662 93.6173414,40.4669355 92.2095918,38.6964244 C90.8490108,36.9852368 87.0590143,29.5184676 71.307718,32.6153778 Z" id="Path-1" fill="#FFFFFF" sketch:type="MSShapeGroup"></path>
                    </g>
                </g>
            </g>
        </g>
    </g>
</svg>