<?xml version="1.0" encoding="UTF-8" standalone="no"?>
<svg width="124px" height="158px" viewBox="0 0 124 158" version="1.1" xmlns="http://www.w3.org/2000/svg" xmlns:xlink="http://www.w3.org/1999/xlink" xmlns:sketch="http://www.bohemiancoding.com/sketch/ns">
    <!-- Generator: Sketch 3.3.3 (12072) - http://www.bohemiancoding.com/sketch -->
    <title>iH_woman</title>
    <desc>Created with Sketch.</desc>
    <defs></defs>
    <g id="Page-1" stroke="none" stroke-width="1" fill="none" fill-rule="evenodd" sketch:type="MSPage">
        <g id="Webリニューアル-3" sketch:type="MSArtboardGroup" transform="translate(-236.000000, -567.000000)" fill="#4A4A4A">
            <g id="iH_woman" sketch:type="MSLayerGroup" transform="translate(236.000000, 567.000000)">
                <path d="M21.3999939,59.4105707 C21.3999939,55.2557381 24.7382929,54.2904199 24.7382929,54.2904199 L42.9984303,53.4623043 L42.9984303,64.6844058 L25.2679484,64.180142 C25.2679484,64.180142 21.3999939,63.5654033 21.3999939,59.4105707 Z" id="Rectangle-69" sketch:type="MSShapeGroup"></path>
                <path d="M70.2084524,44.7515042 C70.2084524,40.5966716 73.5467515,39.6313534 73.5467515,39.6313534 L91.2696364,38.7875279 L87.4117376,25.2790018 L102.628412,23.5749698 C102.628412,23.5749698 106.113426,42.4577208 105.981325,44.7515044 C105.849225,47.0452881 105.981325,48.9699283 101.106138,50.0075976 C89.2472422,50.0075984 74.0764069,49.5210755 74.0764069,49.5210755 C74.0764069,49.5210755 70.2084524,48.9063368 70.2084524,44.7515042 Z" id="Rectangle-69-Copy" sketch:type="MSShapeGroup" transform="translate(88.096720, 36.791284) scale(-1, 1) rotate(91.000000) translate(-88.096720, -36.791284) "></path>
                <path d="M42.0442028,17.3108711 C42.0442028,22.6917953 41.8386554,24.0160613 44.3054338,26.9266987 C46.7722121,29.837336 50.2252887,29.3133278 50.2252887,29.3133278 C50.2252887,29.3133278 48.3970379,27.3091755 47.6194873,24.3469601 C46.8419367,21.3847447 48.5714463,16.4905376 48.5714463,16.4905376 L57.4806194,16.4905376 L58.5442022,12.8174868 L60.2447719,16.4905376 L62.9625473,16.4905376 C62.9625473,16.4905376 64.6897397,21.3103104 63.6431546,24.7554703 C62.5965696,28.2006302 60.2447724,29.3133278 60.2447724,29.3133278 C60.2447724,29.3133278 64.7827146,29.6171018 67.0842939,27.3003159 C69.3858731,24.98353 69.6084504,22.6917953 69.6084504,22.6917953 C69.6084504,22.6917953 70.0442028,16.3557587 70.0442028,14 C70.0442028,13.6017258 70.027572,13.207336 69.9949671,12.817487 C69.3945884,5.63891424 63.3779151,0 56.0442028,0 C48.3122163,0 42.0442028,6.2680135 42.0442028,14 C42.0442028,14.9002636 42.0442028,17.3108711 42.0442028,17.3108711 Z" id="Oval-11-Copy" sketch:type="MSShapeGroup"></path>
                <path d="M52.5315343,46.0660319 C52.4785936,45.9579213 52.3840545,45.8547219 52.2470087,45.7658465 L49.0367705,43.6839794 C48.5796489,43.3875321 48.1802809,43.5818942 48.1611842,44.1287524 L48.0209425,48.1447485 C48.0021036,48.6842225 48.3790135,48.9175988 48.8633702,48.6495159 L52.2110121,46.796655 C52.3663628,46.7106711 52.4736116,46.603242 52.5315343,46.4870518 C52.589457,46.603242 52.6967058,46.7106711 52.8520565,46.796655 L56.1996984,48.6495159 C56.6840551,48.9175988 57.060965,48.6842225 57.0421261,48.1447485 L56.9018844,44.1287524 C56.8827877,43.5818942 56.4834197,43.3875321 56.026298,43.6839794 L52.8160599,45.7658465 C52.6790141,45.8547219 52.584475,45.9579213 52.5315343,46.0660319 Z M44.867837,67.9409052 C44.867837,67.9409052 44.7607245,46.8245517 44.867837,44.4865862 C44.9749494,42.1486207 47.0861206,38.3952219 47.0861206,38.3952219 L52.3835564,44.4865866 L61.2013206,32.9115511 L71.8305759,35.1637366 L76.8946018,36.3384334 L75.2655921,51.5416895 L71.8305755,72.0666834 L87.2431579,105.46144 L29.4344573,105.46144 L44.867837,67.9409052 Z" id="Rectangle-57-Copy" sketch:type="MSShapeGroup"></path>
                <path d="M31.4669215,106.045598 L54.3284861,106.045598 L21.5163733,152.927868 C21.5163733,152.927868 19.3187901,157.083817 15.0163733,157.083817 C10.7139565,157.083817 8.51637334,152.927868 8.51637334,152.927868 L31.4669215,106.045598 Z" id="Rectangle-60-Copy-4" sketch:type="MSShapeGroup"></path>
                <path d="M81.6373145,123.437658 L85.8594634,106.139019 L110.326806,106.139019 L94.8498332,131.843592 L68.7995753,151.642143 C68.7995753,151.642143 62.1586559,159.16593 57.8360596,153.779799 C53.5134632,148.393667 59.9034958,143.173029 59.9034958,143.173029 L81.6373145,123.437658 Z" id="Rectangle-60-Copy-5" sketch:type="MSShapeGroup" transform="translate(83.331081, 130.930652) scale(-1, 1) translate(-83.331081, -130.930652) "></path>
                <g id="Group-Copy" sketch:type="MSShapeGroup">
                    <path d="M10.9764218,19.3455103 C12.3823614,17.3537625 13,14 13,14 C13,14 13.4297518,17.1222614 14.999104,19.3455103 C16.5684561,21.5687592 19,22.5 19,22.5 L7,22.5 C7,22.5 9.57048216,21.3372581 10.9764218,19.3455103 Z M10.9764218,25.6544897 C12.3823614,27.6462375 13,31 13,31 C13,31 13.4297518,27.8777386 14.999104,25.6544897 C16.5684561,23.4312408 19,22.5 19,22.5 L7,22.5 C7,22.5 9.57048216,23.6627419 10.9764218,25.6544897 Z" id="Triangle-9"></path>
                    <path d="M2.31957937,32.1444178 C3.13971082,30.9728015 3.5,29 3.5,29 C3.5,29 3.75068855,30.8366243 4.66614398,32.1444178 C5.58159942,33.4522113 7,34 7,34 L0,34 C0,34 1.49944793,33.3160342 2.31957937,32.1444178 Z M2.31957937,35.8555822 C3.13971082,37.0271985 3.5,39 3.5,39 C3.5,39 3.75068855,37.1633757 4.66614398,35.8555822 C5.58159942,34.5477887 7,34 7,34 L0,34 C0,34 1.49944793,34.6839658 2.31957937,35.8555822 Z" id="Triangle-9-Copy-3"></path>
                    <path d="M115.976422,5.34551028 C117.382361,3.35376248 118,0 118,0 C118,0 118.429752,3.12226137 119.999104,5.34551028 C121.568456,7.5687592 124,8.5 124,8.5 L112,8.5 C112,8.5 114.570482,7.33725808 115.976422,5.34551028 Z M115.976422,11.6544897 C117.382361,13.6462375 118,17 118,17 C118,17 118.429752,13.8777386 119.999104,11.6544897 C121.568456,9.4312408 124,8.5 124,8.5 L112,8.5 C112,8.5 114.570482,9.66274192 115.976422,11.6544897 Z" id="Triangle-9-Copy-5"></path>
                    <path d="M107.319579,15.6444178 C108.139711,14.4728015 108.5,12.5 108.5,12.5 C108.5,12.5 108.750689,14.3366243 109.666144,15.6444178 C110.581599,16.9522113 112,17.5 112,17.5 L105,17.5 C105,17.5 106.499448,16.8160342 107.319579,15.6444178 Z M107.319579,19.3555822 C108.139711,20.5271985 108.5,22.5 108.5,22.5 C108.5,22.5 108.750689,20.6633757 109.666144,19.3555822 C110.581599,18.0477887 112,17.5 112,17.5 L105,17.5 C105,17.5 106.499448,18.1839658 107.319579,19.3555822 Z" id="Triangle-9-Copy-4"></path>
                    <path d="M20.6568424,38.2010925 C21.2426506,37.380961 21.5,36 21.5,36 C21.5,36 21.6790632,37.285637 22.33296,38.2010925 C22.9868567,39.1165479 24,39.5 24,39.5 L19,39.5 C19,39.5 20.0710342,39.0212239 20.6568424,38.2010925 Z M20.6568424,40.7989075 C21.2426506,41.619039 21.5,43 21.5,43 C21.5,43 21.6790632,41.714363 22.33296,40.7989075 C22.9868567,39.8834521 24,39.5 24,39.5 L19,39.5 C19,39.5 20.0710342,39.9787761 20.6568424,40.7989075 Z" id="Triangle-9-Copy-2"></path>
                </g>
            </g>
        </g>
    </g>
</svg>