<?xml version="1.0" encoding="UTF-8" standalone="no"?>
<svg width="106px" height="86px" viewBox="0 0 106 86" version="1.1" xmlns="http://www.w3.org/2000/svg" xmlns:xlink="http://www.w3.org/1999/xlink" xmlns:sketch="http://www.bohemiancoding.com/sketch/ns">
    <!-- Generator: Sketch 3.3.3 (12081) - http://www.bohemiancoding.com/sketch -->
    <title>Photographerアイコン</title>
    <desc>Created with Sketch.</desc>
    <defs></defs>
    <g id="Page-1" stroke="none" stroke-width="1" fill="none" fill-rule="evenodd" sketch:type="MSPage">
        <g id="制作者一覧" sketch:type="MSArtboardGroup" transform="translate(-697.000000, -2330.000000)" fill="#FFFFFF">
            <g id="Photographerアイコン" sketch:type="MSLayerGroup" transform="translate(697.000000, 2330.000000)">
                <path d="M31.429397,49.5391705 C31.429397,61.3950829 41.0571348,71.0060783 52.9337004,71.0060783 C64.8102659,71.0060783 74.4382022,61.3950829 74.4382022,49.5391705 C74.4382022,37.6832581 64.8104644,28.0722627 52.9338989,28.0722627 C41.0573333,28.0722627 31.429397,37.6832581 31.429397,49.5391705 L31.429397,49.5391705 Z M99.2509363,13.2105115 L76.0923184,13.2105115 C74.4382022,6.60515668 72.7840861,0 66.1672247,0 L39.7003745,0 C33.0837116,0 31.429397,6.60515668 29.7752809,13.2105115 L6.61666292,13.2105115 C2.97752809,13.2105115 0,16.1828618 0,19.8156682 L0,79.2626728 C0,82.8954793 2.97752809,85.8678295 6.61666292,85.8678295 L99.2509363,85.8678295 C102.890071,85.8678295 105.867798,82.8954793 105.867798,79.2626728 L105.867798,19.8156682 C105.867599,16.1828618 102.890071,13.2105115 99.2509363,13.2105115 L99.2509363,13.2105115 Z M52.9338989,78.8499124 C36.7178839,78.8499124 23.5720974,65.7271843 23.5720974,49.5391705 C23.5720974,33.3513548 36.7176854,20.2284286 52.9338989,20.2284286 C69.1501124,20.2284286 82.2957004,33.3511567 82.2957004,49.5391705 C82.2955019,65.7271843 69.1503109,78.8499124 52.9338989,78.8499124 L52.9338989,78.8499124 Z M99.2509363,33.0261797 L86.0176105,33.0261797 L86.0176105,26.421023 L99.2509363,26.421023 L99.2509363,33.0261797 L99.2509363,33.0261797 Z" id="Shape" sketch:type="MSShapeGroup"></path>
            </g>
        </g>
    </g>
</svg>