<?xml version="1.0" encoding="UTF-8" standalone="no"?>
<svg width="112px" height="162px" viewBox="0 0 112 162" version="1.1" xmlns="http://www.w3.org/2000/svg" xmlns:xlink="http://www.w3.org/1999/xlink" xmlns:sketch="http://www.bohemiancoding.com/sketch/ns">
    <!-- Generator: Sketch 3.3.3 (12072) - http://www.bohemiancoding.com/sketch -->
    <title>CC_men</title>
    <desc>Created with Sketch.</desc>
    <defs></defs>
    <g id="Page-1" stroke="none" stroke-width="1" fill="none" fill-rule="evenodd" sketch:type="MSPage">
        <g id="Webリニューアル-3" sketch:type="MSArtboardGroup" transform="translate(-248.000000, -346.000000)" fill="#4A4A4A">
            <g id="CC_men" sketch:type="MSLayerGroup" transform="translate(248.000000, 346.000000)">
                <path d="M13.3999939,60.3041048 C13.3999939,56.1492722 16.7382929,55.183954 16.7382929,55.183954 L34.9984303,54.3558384 L34.9984303,65.57794 L17.2679484,65.0736761 C17.2679484,65.0736761 13.3999939,64.4589374 13.3999939,60.3041048 Z" id="Rectangle-69" sketch:type="MSShapeGroup"></path>
                <path d="M62.6808358,44.6768985 C62.6808358,40.5220659 66.0191349,39.5567477 66.0191349,39.5567477 L83.7420197,38.7129223 L79.884121,25.2043962 L95.4558984,25.2043962 C95.4558984,25.2043962 99.8239022,41.7082204 97.20607,46.3950376 C96.2202812,47.3801893 96.0695306,48.4469671 93.5785218,49.9329919 L66.5487903,49.4464698 C66.5487903,49.4464698 62.6808358,48.8317311 62.6808358,44.6768985 Z" id="Rectangle-69-Copy" sketch:type="MSShapeGroup" transform="translate(80.361352, 37.568694) scale(-1, 1) rotate(91.000000) translate(-80.361352, -37.568694) "></path>
                <path d="M39.4782175,20.4881344 C39.4782175,20.4881344 45.1472683,15.8121309 47.2444744,12.1954489 C50.2327766,21.1967554 65.4322739,21.6747742 65.4322739,21.6747742 C65.4322739,21.6747742 67,19.3557587 67,17 C67,16.6017258 66.9833692,16.207336 66.9507643,15.817487 C66.3503857,8.63891424 60.3337123,3 53,3 C45.2680135,3 39,9.2680135 39,17 C39,17.9002636 39.4782175,20.4881344 39.4782175,20.4881344 Z" id="Oval-11-Copy" sketch:type="MSShapeGroup"></path>
                <rect id="Rectangle-58-Copy-3" sketch:type="MSShapeGroup" x="44" y="35.5" width="6" height="3"></rect>
                <path d="M44,39.5 L50,39.5 L50,46.9353123 L47,49.6476965 L44,46.9353123 L44,39.5 Z" id="Rectangle-58-Copy-2" sketch:type="MSShapeGroup"></path>
                <path d="M36.7824202,77.3476067 C36.7824202,77.3476067 36.6753078,47.8321681 36.7824202,45.4942026 C36.8895326,43.1562371 38.4078447,41.8691161 38.4078447,41.8691161 L47,53.159124 L60.9984108,35.5 L63.2469473,36.1637366 L68.3109732,37.3384334 L68.3109732,53.1591244 L68.3109732,84.5626678 L72.9876166,106.461441 L25.1007795,106.461441 L36.7824202,77.3476067 Z M47,60 C47.5522847,60 48,59.5522847 48,59 C48,58.4477153 47.5522847,58 47,58 C46.4477153,58 46,58.4477153 46,59 C46,59.5522847 46.4477153,60 47,60 Z M47,65 C47.5522847,65 48,64.5522847 48,64 C48,63.4477153 47.5522847,63 47,63 C46.4477153,63 46,63.4477153 46,64 C46,64.5522847 46.4477153,65 47,65 Z" id="Rectangle-57-Copy" sketch:type="MSShapeGroup"></path>
                <path d="M25.5072517,105.837412 L48.3688164,105.837412 L14,156.927868 C14,156.927868 11.8024168,161.083817 7.5,161.083817 C3.1975832,161.083817 1,156.927868 1,156.927868 L25.5072517,105.837412 Z" id="Rectangle-60-Copy-4" sketch:type="MSShapeGroup"></path>
                <path d="M73.6707745,126.076126 L78.3430901,105.837412 L102.810433,105.837412 L86.8832932,134.482059 L60.8330353,154.280611 C60.8330353,154.280611 54.1921159,161.804398 49.8695195,156.418266 C45.5469231,151.032135 51.9369557,145.811497 51.9369557,145.811497 L73.6707745,126.076126 Z" id="Rectangle-60-Copy-5" sketch:type="MSShapeGroup" transform="translate(75.589625, 132.099082) scale(-1, 1) translate(-75.589625, -132.099082) "></path>
                <g id="Group-Copy-2" transform="translate(0.000000, 0.500000)" sketch:type="MSShapeGroup">
                    <g id="Triangle-9-Copy-5-+-Triangle-9-Copy-4" transform="translate(102.500000, 11.500000) scale(-1, 1) translate(-102.500000, -11.500000) translate(93.000000, 0.000000)">
                        <path d="M10.9764218,5.34551028 C12.3823614,3.35376248 13,0 13,0 C13,0 13.4297518,3.12226137 14.999104,5.34551028 C16.5684561,7.5687592 19,8.5 19,8.5 L7,8.5 C7,8.5 9.57048216,7.33725808 10.9764218,5.34551028 Z M10.9764218,11.6544897 C12.3823614,13.6462375 13,17 13,17 C13,17 13.4297518,13.8777386 14.999104,11.6544897 C16.5684561,9.4312408 19,8.5 19,8.5 L7,8.5 C7,8.5 9.57048216,9.66274192 10.9764218,11.6544897 Z" id="Triangle-9-Copy-5"></path>
                        <path d="M2.31957937,15.6444178 C3.13971082,14.4728015 3.5,12.5 3.5,12.5 C3.5,12.5 3.75068855,14.3366243 4.66614398,15.6444178 C5.58159942,16.9522113 7,17.5 7,17.5 L0,17.5 C0,17.5 1.49944793,16.8160342 2.31957937,15.6444178 Z M2.31957937,19.3555822 C3.13971082,20.5271985 3.5,22.5 3.5,22.5 C3.5,22.5 3.75068855,20.6633757 4.66614398,19.3555822 C5.58159942,18.0477887 7,17.5 7,17.5 L0,17.5 C0,17.5 1.49944793,18.1839658 2.31957937,19.3555822 Z" id="Triangle-9-Copy-4"></path>
                    </g>
                    <g id="Triangle-9-+-Triangle-9-Copy-2" transform="translate(12.000000, 32.500000) scale(-1, 1) translate(-12.000000, -32.500000) translate(0.000000, 18.000000)">
                        <path d="M10.9764218,5.34551028 C12.3823614,3.35376248 13,0 13,0 C13,0 13.4297518,3.12226137 14.999104,5.34551028 C16.5684561,7.5687592 19,8.5 19,8.5 L7,8.5 C7,8.5 9.57048216,7.33725808 10.9764218,5.34551028 Z M10.9764218,11.6544897 C12.3823614,13.6462375 13,17 13,17 C13,17 13.4297518,13.8777386 14.999104,11.6544897 C16.5684561,9.4312408 19,8.5 19,8.5 L7,8.5 C7,8.5 9.57048216,9.66274192 10.9764218,11.6544897 Z" id="Triangle-9"></path>
                        <path d="M20.6568424,23.7010925 C21.2426506,22.880961 21.5,21.5 21.5,21.5 C21.5,21.5 21.6790632,22.785637 22.33296,23.7010925 C22.9868567,24.6165479 24,25 24,25 L19,25 C19,25 20.0710342,24.5212239 20.6568424,23.7010925 Z M20.6568424,26.2989075 C21.2426506,27.119039 21.5,28.5 21.5,28.5 C21.5,28.5 21.6790632,27.214363 22.33296,26.2989075 C22.9868567,25.3834521 24,25 24,25 L19,25 C19,25 20.0710342,25.4787761 20.6568424,26.2989075 Z" id="Triangle-9-Copy-2"></path>
                        <path d="M2.31957937,17.6444178 C3.13971082,16.4728015 3.5,14.5 3.5,14.5 C3.5,14.5 3.75068855,16.3366243 4.66614398,17.6444178 C5.58159942,18.9522113 7,19.5 7,19.5 L0,19.5 C0,19.5 1.49944793,18.8160342 2.31957937,17.6444178 Z M2.31957937,21.3555822 C3.13971082,22.5271985 3.5,24.5 3.5,24.5 C3.5,24.5 3.75068855,22.6633757 4.66614398,21.3555822 C5.58159942,20.0477887 7,19.5 7,19.5 L0,19.5 C0,19.5 1.49944793,20.1839658 2.31957937,21.3555822 Z" id="Triangle-9-Copy-3"></path>
                    </g>
                </g>
            </g>
        </g>
    </g>
</svg>