<?xml version="1.0" encoding="UTF-8" standalone="no"?>
<svg width="119px" height="173px" viewBox="0 0 119 173" version="1.1" xmlns="http://www.w3.org/2000/svg" xmlns:xlink="http://www.w3.org/1999/xlink" xmlns:sketch="http://www.bohemiancoding.com/sketch/ns">
    <!-- Generator: Sketch 3.3.3 (12072) - http://www.bohemiancoding.com/sketch -->
    <title>CS_woman</title>
    <desc>Created with Sketch.</desc>
    <defs></defs>
    <g id="Page-1" stroke="none" stroke-width="1" fill="none" fill-rule="evenodd" sketch:type="MSPage">
        <g id="Webリニューアル-3" sketch:type="MSArtboardGroup" transform="translate(-221.000000, -971.000000)" fill="#4A4A4A">
            <g id="CS_woman" sketch:type="MSLayerGroup" transform="translate(221.000000, 968.000000)">
                <path d="M46.0680588,26.7582932 C54.6204176,23.9999237 62.5381965,16.0932474 62.5381965,16.0932474 C62.5381965,16.0932474 68.1910862,26.4456267 70.4976002,27.2601544 C72.1231794,15.5572529 65.3379066,10 58.0041942,10 C50.2722077,10 44.8305273,15.9186826 44.8305273,23.6506691 C44.8305273,24.5509327 46.0680588,26.7582932 46.0680588,26.7582932 Z" id="Oval-11-Copy" sketch:type="MSShapeGroup"></path>
                <path d="M44.4333797,79.0293541 L39.0380878,49.3994474 L45.2637997,46.700478 L57.9043503,59.5020697 L71.5115852,46.700478 L76.9600792,49.3994474 L71.1815872,79.0293541 L86.8087006,116.549889 L29,116.549889 L44.4333797,79.0293541 Z M58,66 C58.5522847,66 59,65.5522847 59,65 C59,64.4477153 58.5522847,64 58,64 C57.4477153,64 57,64.4477153 57,65 C57,65.5522847 57.4477153,66 58,66 Z M58,72 C58.5522847,72 59,71.5522847 59,71 C59,70.4477153 58.5522847,70 58,70 C57.4477153,70 57,70.4477153 57,71 C57,71.5522847 57.4477153,72 58,72 Z" id="Rectangle-57-Copy" sketch:type="MSShapeGroup"></path>
                <g id="Group-Copy-4" transform="translate(0.802053, 6.147696)" sketch:type="MSShapeGroup">
                    <path d="M10.9764218,28.3455103 C12.3823614,26.3537625 13,23 13,23 C13,23 13.4297518,26.1222614 14.999104,28.3455103 C16.5684561,30.5687592 19,31.5 19,31.5 L7,31.5 C7,31.5 9.57048216,30.3372581 10.9764218,28.3455103 Z M10.9764218,34.6544897 C12.3823614,36.6462375 13,40 13,40 C13,40 13.4297518,36.8777386 14.999104,34.6544897 C16.5684561,32.4312408 19,31.5 19,31.5 L7,31.5 C7,31.5 9.57048216,32.6627419 10.9764218,34.6544897 Z" id="Triangle-9"></path>
                    <path d="M2.31957937,41.1444178 C3.13971082,39.9728015 3.5,38 3.5,38 C3.5,38 3.75068855,39.8366243 4.66614398,41.1444178 C5.58159942,42.4522113 7,43 7,43 L0,43 C0,43 1.49944793,42.3160342 2.31957937,41.1444178 Z M2.31957937,44.8555822 C3.13971082,46.0271985 3.5,48 3.5,48 C3.5,48 3.75068855,46.1633757 4.66614398,44.8555822 C5.58159942,43.5477887 7,43 7,43 L0,43 C0,43 1.49944793,43.6839658 2.31957937,44.8555822 Z" id="Triangle-9-Copy-3"></path>
                    <path d="M109.976422,5.34551028 C111.382361,3.35376248 112,0 112,0 C112,0 112.429752,3.12226137 113.999104,5.34551028 C115.568456,7.5687592 118,8.5 118,8.5 L106,8.5 C106,8.5 108.570482,7.33725808 109.976422,5.34551028 Z M109.976422,11.6544897 C111.382361,13.6462375 112,17 112,17 C112,17 112.429752,13.8777386 113.999104,11.6544897 C115.568456,9.4312408 118,8.5 118,8.5 L106,8.5 C106,8.5 108.570482,9.66274192 109.976422,11.6544897 Z" id="Triangle-9-Copy-5"></path>
                    <path d="M101.319579,16.1444178 C102.139711,14.9728015 102.5,13 102.5,13 C102.5,13 102.750689,14.8366243 103.666144,16.1444178 C104.581599,17.4522113 106,18 106,18 L99,18 C99,18 100.499448,17.3160342 101.319579,16.1444178 Z M101.319579,19.8555822 C102.139711,21.0271985 102.5,23 102.5,23 C102.5,23 102.750689,21.1633757 103.666144,19.8555822 C104.581599,18.5477887 106,18 106,18 L99,18 C99,18 100.499448,18.6839658 101.319579,19.8555822 Z" id="Triangle-9-Copy-4"></path>
                    <path d="M20.6568424,47.2010925 C21.2426506,46.380961 21.5,45 21.5,45 C21.5,45 21.6790632,46.285637 22.33296,47.2010925 C22.9868567,48.1165479 24,48.5 24,48.5 L19,48.5 C19,48.5 20.0710342,48.0212239 20.6568424,47.2010925 Z M20.6568424,49.7989075 C21.2426506,50.619039 21.5,52 21.5,52 C21.5,52 21.6790632,50.714363 22.33296,49.7989075 C22.9868567,48.8834521 24,48.5 24,48.5 L19,48.5 C19,48.5 20.0710342,48.9787761 20.6568424,49.7989075 Z" id="Triangle-9-Copy-2"></path>
                </g>
                <g id="Rectangle-60-Copy-4-+-Rectangle-60-Copy-6-Copy-Copy" transform="translate(45.000000, 117.000000)" sketch:type="MSShapeGroup">
                    <path d="M0,0.200012207 L11.7874362,0.200012207 L11.7874362,54.3247669 C11.7874362,54.3247669 9.96755511,58.4807155 6.40460153,58.4807155 C2.84164796,58.4807155 1.02176689,54.3247669 1.02176689,54.3247669 L0,0.200012207 Z" id="Rectangle-60-Copy-4"></path>
                    <path d="M14.2200012,0.200012207 L26.0074374,0.200012207 L26.0074374,54.3247669 C26.0074374,54.3247669 24.1875563,58.4807155 20.6246028,58.4807155 C17.0616492,58.4807155 15.2417681,54.3247669 15.2417681,54.3247669 L14.2200012,0.200012207 Z" id="Rectangle-60-Copy-6"></path>
                </g>
                <rect id="Rectangle-58-Copy-5" sketch:type="MSShapeGroup" x="55" y="44" width="6" height="3"></rect>
                <path d="M54.9043503,48 L60.9043503,48 L60.9043503,55.4353123 L57.9043503,58.1476965 L54.9043503,55.4353123 L54.9043503,48 Z" id="Rectangle-58-Copy-4" sketch:type="MSShapeGroup"></path>
                <path d="M81.2312615,35.4199798 C81.5573646,33.7924645 83.1655641,32.6237087 84.8088043,32.807869 L103.304449,34.8807023 L102.454309,47.8947983 L88.4338529,43.5032735 L83.8539864,64.9601922 C83.8539864,64.9601922 82.272376,68.2626786 79.1430755,67.6575761 C76.0137749,67.0524736 75.5453925,63.7970109 75.5453925,63.7970109 L81.2312615,35.4199798 Z" id="Rectangle-60-Copy-8" sketch:type="MSShapeGroup" transform="translate(89.424921, 50.260198) scale(-1, -1) rotate(15.000000) translate(-89.424921, -50.260198) "></path>
                <path d="M35.5785931,11.3450728 C37.7217591,6.87543305 42.6044205,9.15882307 42.6044205,9.15882307 L44.4114113,25.1376582 L42.6044207,27.4433957 L34.0314492,66.7615033 C34.0314492,66.7615033 32.4498389,70.0639897 29.3205383,69.4588872 C26.1912378,68.8537846 25.7228554,65.598322 25.7228554,65.598322 C25.7228554,65.598322 33.435427,15.8147126 35.5785931,11.3450728 Z" id="Rectangle-60-Copy-13" sketch:type="MSShapeGroup" transform="translate(35.067133, 39.054284) scale(1, -1) rotate(15.000000) translate(-35.067133, -39.054284) "></path>
                <rect id="Rectangle-104" sketch:type="MSShapeGroup" transform="translate(66.500000, 10.500000) rotate(37.000000) translate(-66.500000, -10.500000) " x="63" y="9" width="7" height="3" rx="8"></rect>
                <path d="M64.6700137,8.36435424 C67.8999526,6.56758632 71.3303961,6.02875553 74.3374913,8.57714696 C79.3924068,14.8531804 79.2479107,22.7065436 83.5820905,22.0867787 C87.9162702,21.4670139 87.1219513,16.5472847 87.1219513,16.5472847 C87.1219513,16.5472847 92.7189495,24.7852787 88.1505196,27.9959316 C83.5820897,31.2065846 79.9528733,28.552441 78.9933568,27.9959308 C73.7236388,23.9916801 71.605962,14.5561893 70.691726,13.3134942 C69.77749,12.0707991 69.3059604,11.2048669 67.2918637,12.0904231 C65.2777669,12.9759793 65.3027015,15.1437187 65.3027016,15.1437183 C66.6349178,15.1437183 64.4595939,15.1437183 61.625702,15.1437183 C61.4147462,10.6599315 64.6700138,8.36435421 64.6700137,8.36435424 Z" id="Rectangle-104-Copy" sketch:type="MSShapeGroup" transform="translate(75.780310, 18.196916) rotate(37.000000) translate(-75.780310, -18.196916) "></path>
            </g>
        </g>
    </g>
</svg>