<?xml version="1.0" encoding="UTF-8" standalone="no"?>
<svg width="16px" height="24px" viewBox="0 0 16 24" version="1.1" xmlns="http://www.w3.org/2000/svg" xmlns:xlink="http://www.w3.org/1999/xlink" xmlns:sketch="http://www.bohemiancoding.com/sketch/ns">
    <!-- Generator: Sketch 3.3.3 (12072) - http://www.bohemiancoding.com/sketch -->
    <title>Shape Copy + Shape Copy 2</title>
    <desc>Created with Sketch.</desc>
    <defs></defs>
    <g id="Page-1" stroke="none" stroke-width="1" fill="none" fill-rule="evenodd" sketch:type="MSPage">
        <g id="カリキュラムbase" sketch:type="MSArtboardGroup" transform="translate(-472.000000, -2112.000000)" fill="#4A4A4A">
            <g id="Shape-Copy-+-Shape-Copy-2" sketch:type="MSLayerGroup" transform="translate(480.000000, 2124.000000) rotate(-90.000000) translate(-480.000000, -2124.000000) translate(468.000000, 2116.000000)">
                <path d="M15,10 L9,10 L0.75,10 C0.335625,10 0,10.335625 0,10.75 L0,15.25 C0,15.664375 0.335625,16 0.75,16 L9,16 L15,16 L23.25,16 C23.664375,16 24,15.664375 24,15.25 L24,10.75 C24,10.335625 23.664375,10 23.25,10 L15,10 Z" id="Shape-Copy" sketch:type="MSShapeGroup"></path>
                <path d="M15,0 L9,0 L0.75,0 C0.335625,0 0,0.335625 0,0.75 L0,5.25 C0,5.664375 0.335625,6 0.75,6 L9,6 L15,6 L23.25,6 C23.664375,6 24,5.664375 24,5.25 L24,0.75 C24,0.335625 23.664375,0 23.25,0 L15,0 Z" id="Shape-Copy-2" sketch:type="MSShapeGroup"></path>
            </g>
        </g>
    </g>
</svg>