<?xml version="1.0" encoding="UTF-8" standalone="no"?>
<svg width="124px" height="163px" viewBox="0 0 124 163" version="1.1" xmlns="http://www.w3.org/2000/svg" xmlns:xlink="http://www.w3.org/1999/xlink" xmlns:sketch="http://www.bohemiancoding.com/sketch/ns">
    <!-- Generator: Sketch 3.3.3 (12072) - http://www.bohemiancoding.com/sketch -->
    <title>iM_man</title>
    <desc>Created with Sketch.</desc>
    <defs></defs>
    <g id="Page-1" stroke="none" stroke-width="1" fill="none" fill-rule="evenodd" sketch:type="MSPage">
        <g id="Webリニューアル-3" sketch:type="MSArtboardGroup" transform="translate(-237.000000, -776.000000)" fill="#4A4A4A">
            <g id="iM_man" sketch:type="MSLayerGroup" transform="translate(237.000000, 773.000000)">
                <path d="M79.46116,28.9824064 C79.46116,28.9824064 81.4319128,30.39766 78.9372384,35.3182368 C78.9372384,35.3182368 80.6490415,32.7090494 81.6662093,33.079615 C81.6662093,33.079615 82.4453966,33.5014166 81.6662093,36.0370017 C80.8322222,37.3770454 78.9372384,37.9302948 78.9372384,37.9302948 C78.9372384,37.9302948 78.527108,41.3294299 77.4178431,43.874785 C77.9677656,43.5758709 78.1413993,42.9295552 79.9210247,40.6797184 C81.7006502,38.4298816 82.4972852,38.2498402 83.8811766,35.3182372 C84.6083114,33.7243478 84.6083114,30.8195094 84.6083114,28.9824064 C84.6083114,19.9001692 78.2675013,17.1055548 71.467085,17.1055548 C68.1073999,17.1055548 59.0683105,14.3683459 59.0683105,14.3683459 C59.0683105,14.3683459 59.1533738,15.9891578 59.3710159,16.6991668 C59.7105541,17.8068342 61.0425569,19.5241827 61.0425569,19.5241827 L59.8144581,19.5241826 C59.8144581,19.5241826 63.2050767,28.9824064 79.46116,28.9824064 Z" id="Oval-11" sketch:type="MSShapeGroup" transform="translate(71.838311, 29.121565) scale(-1, 1) rotate(-12.000000) translate(-71.838311, -29.121565) "></path>
                <path d="M22.6729783,98.9879568 L42.1913461,98.9879568 L35.6729783,162.915825 C35.6729783,162.915825 33.4753951,167.071773 29.1729783,167.071773 C24.8705615,167.071773 22.6729783,162.915825 22.6729783,162.915825 L22.6729783,98.9879568 Z" id="Rectangle-60-Copy-12" sketch:type="MSShapeGroup" transform="translate(32.432162, 133.029865) rotate(23.000000) translate(-32.432162, -133.029865) "></path>
                <path d="M37.2319634,2.05472685 C39.3751294,-2.4149129 47.1655912,2.05472687 47.1655912,2.05472687 L49.4551382,10.8529529 L44.1511921,56.5367306 C44.1511921,56.5367306 43.6570898,59.3962543 40.0165832,59.3962543 C36.3760767,59.3962543 35.6330289,56.5367306 35.6330289,56.5367306 C35.6330289,56.5367306 35.0887973,6.52436661 37.2319634,2.05472685 Z" id="Rectangle-60-Copy-9" sketch:type="MSShapeGroup" transform="translate(42.513213, 29.732237) scale(1, -1) rotate(26.000000) translate(-42.513213, -29.732237) "></path>
                <path d="M92.4940796,45.4424524 C92.4940796,45.4424524 88.084385,47.1659547 82.7460394,49.3246613 C82.6807781,49.2993687 77.9115401,37.577963 77.9115401,37.577963 L96.0990438,34.156936 C98.8125284,33.6465359 101.012242,35.4747712 101.012242,38.2294113 L101.012243,63.3892036 C101.012243,63.3892036 100.51814,66.2487274 96.8776338,66.2487274 C93.2371273,66.2487274 92.4940795,63.3892036 92.4940795,63.3892036 L92.4940796,45.4424524 Z" id="Rectangle-60-Copy-10" sketch:type="MSShapeGroup" transform="translate(89.461891, 50.160093) scale(1, -1) rotate(4.000000) translate(-89.461891, -50.160093) "></path>
                <path d="M73.6832792,129.767162 L70.2059835,97.9256139 L90.306012,99.0126069 L90.306012,133.578211 C90.3060125,133.578209 70.2698382,161.850197 70.2698382,161.850197 C70.2698382,161.850197 67.4545778,166.137269 63.2251226,164.193909 C58.9956673,162.25055 59.8331455,156.417214 59.8331455,156.417214 C59.8331455,156.417214 73.6832793,129.767163 73.6832792,129.767162 Z" id="Rectangle-60-Copy-11" sketch:type="MSShapeGroup" transform="translate(75.035881, 131.312486) rotate(-32.000000) translate(-75.035881, -131.312486) "></path>
                <g id="Rectangle-58-Copy-6-+-Rectangle-58-Copy-7-+-Rectangle-57-Copy-2" transform="translate(59.844733, 75.629502) rotate(15.000000) translate(-59.844733, -75.629502) translate(42.344733, 43.629502)" sketch:type="MSShapeGroup">
                    <rect id="Rectangle-58-Copy-6" x="15.3943596" y="0.796107635" width="6" height="3"></rect>
                    <path d="M15.3943596,4.79610763 L21.3943596,4.79610763 L21.3943596,12.2314199 L18.3943596,14.9438041 L15.3943596,12.2314199 L15.3943596,4.79610763 Z" id="Rectangle-58-Copy-7"></path>
                    <path d="M1.54822087,1.89501083 L6.45739627,1.89501083 L18.3943596,18.4211574 L32.3927703,2.73745429 L34.3943596,2.73745429 L33.6275272,63.7620335 L0.178361654,63.7620335 L1.54822087,1.89501083 Z M18.3943596,23.7961076 C18.9466443,23.7961076 19.3943596,23.3483924 19.3943596,22.7961076 C19.3943596,22.2438229 18.9466443,21.7961076 18.3943596,21.7961076 C17.8420748,21.7961076 17.3943596,22.2438229 17.3943596,22.7961076 C17.3943596,23.3483924 17.8420748,23.7961076 18.3943596,23.7961076 Z M18.3943596,29.7961076 C18.9466443,29.7961076 19.3943596,29.3483924 19.3943596,28.7961076 C19.3943596,28.2438229 18.9466443,27.7961076 18.3943596,27.7961076 C17.8420748,27.7961076 17.3943596,28.2438229 17.3943596,28.7961076 C17.3943596,29.3483924 17.8420748,29.7961076 18.3943596,29.7961076 Z" id="Rectangle-57-Copy-2"></path>
                </g>
                <g id="Group-Copy-3" transform="translate(0.000000, 12.000000)" sketch:type="MSShapeGroup">
                    <g id="Triangle-9-Copy-5-+-Triangle-9-Copy-4" transform="translate(114.500000, 11.500000) scale(-1, 1) translate(-114.500000, -11.500000) translate(105.000000, 0.000000)">
                        <path d="M10.9764218,5.34551028 C12.3823614,3.35376248 13,0 13,0 C13,0 13.4297518,3.12226137 14.999104,5.34551028 C16.5684561,7.5687592 19,8.5 19,8.5 L7,8.5 C7,8.5 9.57048216,7.33725808 10.9764218,5.34551028 Z M10.9764218,11.6544897 C12.3823614,13.6462375 13,17 13,17 C13,17 13.4297518,13.8777386 14.999104,11.6544897 C16.5684561,9.4312408 19,8.5 19,8.5 L7,8.5 C7,8.5 9.57048216,9.66274192 10.9764218,11.6544897 Z" id="Triangle-9-Copy-5"></path>
                        <path d="M2.31957937,15.6444178 C3.13971082,14.4728015 3.5,12.5 3.5,12.5 C3.5,12.5 3.75068855,14.3366243 4.66614398,15.6444178 C5.58159942,16.9522113 7,17.5 7,17.5 L0,17.5 C0,17.5 1.49944793,16.8160342 2.31957937,15.6444178 Z M2.31957937,19.3555822 C3.13971082,20.5271985 3.5,22.5 3.5,22.5 C3.5,22.5 3.75068855,20.6633757 4.66614398,19.3555822 C5.58159942,18.0477887 7,17.5 7,17.5 L0,17.5 C0,17.5 1.49944793,18.1839658 2.31957937,19.3555822 Z" id="Triangle-9-Copy-4"></path>
                    </g>
                    <g id="Triangle-9-+-Triangle-9-Copy-3-+-Triangle-9-Copy-2" transform="translate(12.000000, 28.500000) scale(-1, 1) translate(-12.000000, -28.500000) translate(0.000000, 14.000000)">
                        <path d="M10.9764218,5.34551028 C12.3823614,3.35376248 13,0 13,0 C13,0 13.4297518,3.12226137 14.999104,5.34551028 C16.5684561,7.5687592 19,8.5 19,8.5 L7,8.5 C7,8.5 9.57048216,7.33725808 10.9764218,5.34551028 Z M10.9764218,11.6544897 C12.3823614,13.6462375 13,17 13,17 C13,17 13.4297518,13.8777386 14.999104,11.6544897 C16.5684561,9.4312408 19,8.5 19,8.5 L7,8.5 C7,8.5 9.57048216,9.66274192 10.9764218,11.6544897 Z" id="Triangle-9"></path>
                        <path d="M2.31957937,18.1444178 C3.13971082,16.9728015 3.5,15 3.5,15 C3.5,15 3.75068855,16.8366243 4.66614398,18.1444178 C5.58159942,19.4522113 7,20 7,20 L0,20 C0,20 1.49944793,19.3160342 2.31957937,18.1444178 Z M2.31957937,21.8555822 C3.13971082,23.0271985 3.5,25 3.5,25 C3.5,25 3.75068855,23.1633757 4.66614398,21.8555822 C5.58159942,20.5477887 7,20 7,20 L0,20 C0,20 1.49944793,20.6839658 2.31957937,21.8555822 Z" id="Triangle-9-Copy-3"></path>
                        <path d="M20.6568424,24.2010925 C21.2426506,23.380961 21.5,22 21.5,22 C21.5,22 21.6790632,23.285637 22.33296,24.2010925 C22.9868567,25.1165479 24,25.5 24,25.5 L19,25.5 C19,25.5 20.0710342,25.0212239 20.6568424,24.2010925 Z M20.6568424,26.7989075 C21.2426506,27.619039 21.5,29 21.5,29 C21.5,29 21.6790632,27.714363 22.33296,26.7989075 C22.9868567,25.8834521 24,25.5 24,25.5 L19,25.5 C19,25.5 20.0710342,25.9787761 20.6568424,26.7989075 Z" id="Triangle-9-Copy-2"></path>
                    </g>
                </g>
            </g>
        </g>
    </g>
</svg>