<?xml version="1.0" encoding="UTF-8" standalone="no"?>
<svg width="103px" height="47px" viewBox="0 0 103 47" version="1.1" xmlns="http://www.w3.org/2000/svg" xmlns:xlink="http://www.w3.org/1999/xlink" xmlns:sketch="http://www.bohemiancoding.com/sketch/ns">
    <!-- Generator: Sketch 3.3.3 (12072) - http://www.bohemiancoding.com/sketch -->
    <title>pick up copy</title>
    <desc>Created with Sketch.</desc>
    <defs></defs>
    <g id="Page-1" stroke="none" stroke-width="1" fill="none" fill-rule="evenodd" sketch:type="MSPage">
        <g id="イベントカレンダー1" sketch:type="MSArtboardGroup" transform="translate(-296.000000, -913.000000)">
            <g id="4" sketch:type="MSLayerGroup" transform="translate(140.000000, 798.000000)">
                <g id="pick-up-copy" transform="translate(148.000000, 111.000000)">
                    <path d="M96.5,24.5 L96.5,28.5" id="Line" stroke="#F8E81C" stroke-width="3" stroke-linecap="square" sketch:type="MSShapeGroup"></path>
                    <path d="M109,38 L105,38" id="Line-Copy" stroke="#F8E81C" stroke-width="3" stroke-linecap="square" sketch:type="MSShapeGroup"></path>
                    <path d="M106,27.8749452 L103.059998,31.1250548" id="Line-Copy-2" stroke="#F8E81C" stroke-width="3" stroke-linecap="square" sketch:type="MSShapeGroup"></path>
                    <text id="Pick-up" sketch:type="MSTextLayer" font-family="Avenir" font-size="20" font-weight="normal" fill="#FF6E7F">
                        <tspan x="33" y="45">Pick up</tspan>
                    </text>
                    <path d="M20.6359625,11.2931704 L12.6604596,19.266709 C11.3392628,20.587513 11.3392628,22.7301854 12.6604596,24.0509893 C13.9816564,25.3717933 16.123936,25.3717933 17.4455257,24.0509893 L27.0160506,14.4820359 C29.218831,12.2804341 29.218831,8.71049195 27.0160506,6.50889014 C24.8144488,4.30650261 21.2433281,4.30650261 19.0413334,6.50889014 L8.9930876,16.5559573 C5.89968777,19.6481786 5.89968777,24.6269259 8.97148016,27.6975397 C12.042094,30.7681534 17.0220198,30.7681534 20.0942051,27.6975397 C20.1008837,27.690861 20.1907358,27.606863 20.1907358,27.606863 L18.5929698,26.0065078 L18.519219,26.0820888 C16.3113314,28.2895835 12.7531752,28.2895835 10.5657164,26.1029105 C8.37904341,23.9166303 8.37904341,20.3592598 10.5657164,18.1725868 C10.5731808,18.1651224 20.6359625,8.10351929 20.6359625,8.10351929 C21.9548022,6.78389393 24.1017961,6.78389393 25.4210286,8.10351929 C26.7398682,9.42275177 26.7398682,11.5693528 25.4210286,12.8874067 L15.8505037,22.4559673 C15.4101047,22.8959734 14.6950949,22.8959734 14.2550888,22.4559673 C13.8158684,22.016747 13.8158684,21.3009514 14.2550888,20.8621239 L22.2301988,12.8874067 L20.6359625,11.2931704 Z" id="Shape" fill="#979797" sketch:type="MSShapeGroup" transform="translate(17.667886, 17.428800) scale(-1, -1) rotate(-45.000000) translate(-17.667886, -17.428800) "></path>
                </g>
            </g>
        </g>
    </g>
</svg>