<?xml version="1.0" encoding="UTF-8" standalone="no"?>
<svg width="109px" height="94px" viewBox="0 0 109 94" version="1.1" xmlns="http://www.w3.org/2000/svg" xmlns:xlink="http://www.w3.org/1999/xlink" xmlns:sketch="http://www.bohemiancoding.com/sketch/ns">
    <!-- Generator: Sketch 3.3.3 (12081) - http://www.bohemiancoding.com/sketch -->
    <title>WebProgrammerアイコン</title>
    <desc>Created with Sketch.</desc>
    <defs></defs>
    <g id="Page-1" stroke="none" stroke-width="1" fill="none" fill-rule="evenodd" sketch:type="MSPage">
        <g id="制作者一覧" sketch:type="MSArtboardGroup" transform="translate(-697.000000, -1145.000000)" fill="#FFFFFF">
            <g id="WebProgrammerアイコン" sketch:type="MSLayerGroup" transform="translate(697.000000, 1145.000000)">
                <g id="Group" sketch:type="MSShapeGroup">
                    <path d="M103.720494,0.0889971989 L5.27845036,0.0889971989 C2.36289831,0.0889971989 0,2.44663305 0,5.35510364 L0,66.968549 C0,69.8770196 2.36289831,72.2346555 5.27845036,72.2346555 L42.0951138,72.2346555 L42.0951138,84.1676527 L27.7686077,84.1676527 C25.0763341,84.1676527 22.8860412,86.3528235 22.8860412,89.0388011 C22.8860412,91.7247787 25.0763341,93.9099496 27.7686077,93.9099496 L81.2303366,93.9099496 C83.9226102,93.9099496 86.1129031,91.7247787 86.1129031,89.0388011 C86.1129031,86.3528235 83.9226102,84.1676527 81.2303366,84.1676527 L66.9038305,84.1676527 L66.9038305,72.2346555 L103.720494,72.2346555 C106.636046,72.2346555 108.998944,69.8770196 108.998944,66.968549 L108.998944,5.35510364 C108.998944,2.44663305 106.636046,0.0889971989 103.720494,0.0889971989 L103.720494,0.0889971989 Z M101.081269,64.3354958 L7.91767554,64.3354958 L7.91767554,7.98815686 L101.081269,7.98815686 L101.081269,64.3354958 L101.081269,64.3354958 Z" id="Shape"></path>
                    <path d="M24.9646949,39.1369132 L41.6139831,46.8612381 C42.0444407,47.0600336 42.5026102,47.1608796 42.9763511,47.1608796 C43.5934019,47.1608796 44.1946174,46.9860448 44.7174479,46.6542801 C45.653845,46.0573669 46.2128329,45.0402185 46.2128329,43.9330196 L46.2128329,43.8482353 C46.2128329,42.5972717 45.4778087,41.4482073 44.3400387,40.9205434 L33.9269758,36.0941569 L44.3403027,31.2667171 C45.4778087,30.7390532 46.2128329,29.5897255 46.2128329,28.3392885 L46.2128329,28.2552941 C46.2128329,27.1465154 45.6535811,26.1293669 44.7177119,25.5342969 C44.1998959,25.204112 43.5968329,25.0298039 42.9742397,25.0298039 C42.5049855,25.0298039 42.0338838,25.1327563 41.6123995,25.3281289 L24.964431,33.0514006 C23.8274528,33.5793277 23.0929564,34.7283922 23.0929564,35.9785658 L23.0929564,36.2097479 C23.0926925,37.4583417 23.8269249,38.6071429 24.9646949,39.1369132 L24.9646949,39.1369132 Z" id="Shape"></path>
                    <path d="M46.3611574,54.8699328 C46.9684431,55.6990812 47.9452203,56.1940952 48.9742542,56.1940952 L49.0573898,56.1940952 C50.4699031,56.1940952 51.7076998,55.2920112 52.1378935,53.9517871 L63.1057215,20.0485938 C63.4203172,19.069888 63.2456005,17.9900728 62.6383148,17.1590812 C62.0310291,16.3299328 61.0542518,15.8346555 60.0252179,15.8346555 L59.9423462,15.8346555 C58.5293051,15.8346555 57.2904528,16.7367395 56.8599952,18.0769636 L45.8908475,51.9830532 C45.578891,52.962549 45.7546634,54.0413109 46.3611574,54.8699328 L46.3611574,54.8699328 Z" id="Shape"></path>
                    <path d="M62.7861114,28.3390252 C62.7861114,29.5886723 63.5203438,30.7377367 64.6586416,31.267507 L75.0717046,36.0938936 L64.6586416,40.9202801 C63.5208717,41.447944 62.7858475,42.5970084 62.7858475,43.847972 L62.7858475,43.9327563 C62.7858475,45.0399552 63.3445714,46.0571036 64.2820242,46.6542801 C64.8030073,46.9855182 65.4047506,47.1606162 66.0225932,47.1606162 C66.4955424,47.1606162 66.9534479,47.0597703 67.3868087,46.8599216 L84.0353051,39.1358599 C85.1720194,38.6068796 85.9062518,37.4580784 85.9062518,36.2092213 L85.9062518,35.9780392 C85.9062518,34.7278655 85.1717554,33.5788011 84.0342494,33.0508739 L67.3860169,25.3270756 C66.9661162,25.132493 66.4958063,25.0292773 66.0262881,25.0292773 C65.4039588,25.0292773 64.800632,25.2035854 64.2833438,25.5327171 C63.3453632,26.1288403 62.7861114,27.1459888 62.7861114,28.2547675 L62.7861114,28.3390252 L62.7861114,28.3390252 Z" id="Shape"></path>
                </g>
            </g>
        </g>
    </g>
</svg>